<svg width="current" height="current" viewBox="0 0 378 300" fill="none" xmlns="http://www.w3.org/2000/svg">
    <g filter="url(#filter0_d_4259_4734)">
        <path fillRule="evenodd" clipRule="evenodd"
            d="M186.635 38.9227C188.13 39.6319 189.87 39.6319 191.365 38.9227C236.639 17.4492 288.584 15.6538 334.974 33.5364C346.302 37.9033 353 49.2608 353 61.4017V239.554C353 250.992 341.29 258.807 330.291 255.67C288.418 243.729 242.438 244.937 201.022 258.135L172.208 270.654C170.274 271.494 168.158 269.915 168.414 267.821L169.709 257.23C169.819 256.326 169.276 255.473 168.404 255.21C131.399 244.058 81.4795 246.04 47.7091 255.67C36.7096 258.807 25 250.992 25 239.554V61.4017C25 49.2608 31.6979 37.9033 43.0262 33.5364C89.416 15.6538 141.361 17.4492 186.635 38.9227Z"
            fill="white" shapeRendering="crispEdges" />
        <path fillRule="evenodd" clipRule="evenodd"
            d="M186.635 38.9227C188.13 39.6319 189.87 39.6319 191.365 38.9227C236.639 17.4492 288.584 15.6538 334.974 33.5364C346.302 37.9033 353 49.2608 353 61.4017V239.554C353 250.992 341.29 258.807 330.291 255.67C288.418 243.729 242.438 244.937 201.022 258.135L172.208 270.654C170.274 271.494 168.158 269.915 168.414 267.821L169.709 257.23C169.819 256.326 169.276 255.473 168.404 255.21C131.399 244.058 81.4795 246.04 47.7091 255.67C36.7096 258.807 25 250.992 25 239.554V61.4017C25 49.2608 31.6979 37.9033 43.0262 33.5364C89.416 15.6538 141.361 17.4492 186.635 38.9227Z"
            stroke="#DA66F6" strokeOpacity="0.22" shapeRendering="crispEdges" />
    </g>
    <g clipPath="url(#clip0_4259_4734)">
        <path
            d="M363.392 83.143C363.411 83.5034 363.386 83.8701 363.3 84.2343L355.69 116.547C355.307 118.175 353.932 119.319 352.352 119.328L306.692 119.573C306.686 119.573 306.68 119.573 306.674 119.573H261.014C259.425 119.573 258.041 118.424 257.657 116.788L250.047 84.3533C249.96 83.9792 249.934 83.6023 249.956 83.2326C247.013 82.2481 244.871 79.3238 244.871 75.8776C244.871 71.6256 248.13 68.1667 252.135 68.1667C256.141 68.1667 259.399 71.6256 259.399 75.8776C259.399 78.2722 258.366 80.4146 256.747 81.83L266.275 92.0201C268.683 94.5958 272.025 96.0724 275.443 96.0724C279.485 96.0724 283.339 94.0348 285.766 90.6209L301.424 68.5975C300.109 67.2022 299.294 65.2742 299.294 63.1484C299.294 58.8964 302.553 55.4375 306.559 55.4375C310.564 55.4375 313.823 58.8964 313.823 63.1484C313.823 65.2106 313.052 67.0822 311.805 68.4673C311.809 68.4731 311.814 68.478 311.818 68.4844L327.363 90.5685C329.789 94.0152 333.657 96.0729 337.71 96.0729C341.16 96.0729 344.405 94.6468 346.844 92.0569L356.432 81.8794C354.779 80.4645 353.718 78.3015 353.718 75.8776C353.718 71.6256 356.976 68.1667 360.982 68.1667C364.988 68.1667 368.246 71.6256 368.246 75.8776C368.246 79.2317 366.214 82.0845 363.392 83.143ZM354.948 131.078C354.948 129.05 353.399 127.406 351.489 127.406H262.013C260.103 127.406 258.554 129.05 258.554 131.078V139.891C258.554 141.918 260.103 143.562 262.013 143.562H351.489C353.399 143.562 354.948 141.918 354.948 139.891V131.078Z"
            fill="url(#paint0_linear_4259_4734)" fillOpacity="0.21" />
    </g>
    <defs>
        <filter id="filter0_d_4259_4734" x="0.200001" y="0.548145" width="377.6" height="299.137"
            filterUnits="userSpaceOnUse" colorInterpolationFilters="sRGB">
            <feFlood floodOpacity="0" result="BackgroundImageFix" />
            <feColorMatrix in="SourceAlpha" type="matrix"
                values="0 0 0 0 0 0 0 0 0 0 0 0 0 0 0 0 0 0 127 0" result="hardAlpha" />
            <feOffset dy="4" />
            <feGaussianBlur stdDeviation="12.15" />
            <feComposite in2="hardAlpha" operator="out" />
            <feColorMatrix type="matrix"
                values="0 0 0 0 0.960784 0 0 0 0 0.4 0 0 0 0 0.917647 0 0 0 0.28 0" />
            <feBlend mode="normal" in2="BackgroundImageFix" result="effect1_dropShadow_4259_4734" />
            <feBlend mode="normal" in="SourceGraphic" in2="effect1_dropShadow_4259_4734"
                result="shape" />
        </filter>
        <linearGradient id="paint0_linear_4259_4734" x1="233.415" y1="30.8445" x2="391" y2="58.5068"
            gradientUnits="userSpaceOnUse">
            <stop stopColor="#92CBF6" />
            <stop offset="0.045" stopColor="#FF67E7" />
            <stop offset="1" stopColor="#C567FF" />
        </linearGradient>
        <clipPath id="clip0_4259_4734">
            <rect width="117" height="141" fill="white" transform="translate(236.059 29)" />
        </clipPath>
    </defs>
</svg>