<svg width="current" height="current" viewBox="0 0 22 22" fill="none" xmlns="http://www.w3.org/2000/svg">
    <g id="crown">
        <path id="Vector"
            d="M19.8676 8.44785C19.8705 8.50407 19.8667 8.56128 19.8533 8.61812L18.666 13.6598C18.6061 13.9138 18.3916 14.0924 18.1451 14.0938L11.0208 14.1319C11.0199 14.1319 11.019 14.1319 11.0181 14.1319H3.89369C3.64585 14.1319 3.42989 13.9527 3.37002 13.6974L2.18264 8.63668C2.16896 8.57832 2.16501 8.5195 2.16846 8.46183C1.70912 8.30821 1.375 7.85194 1.375 7.31424C1.375 6.6508 1.88342 6.11111 2.50841 6.11111C3.13341 6.11111 3.64182 6.6508 3.64182 7.31424C3.64182 7.68785 3.48055 8.02213 3.22804 8.24297L4.71464 9.83293C5.09036 10.2348 5.61173 10.4652 6.14511 10.4652C6.77579 10.4652 7.37711 10.1473 7.75578 9.61461L10.1989 6.17833C9.99367 5.96062 9.86659 5.65981 9.86659 5.32812C9.86659 4.66469 10.375 4.125 11 4.125C11.625 4.125 12.1334 4.66469 12.1334 5.32812C12.1334 5.64987 12.0131 5.94191 11.8186 6.15801C11.8192 6.15893 11.82 6.15969 11.8207 6.16069L14.2461 9.60644C14.6246 10.1442 15.2281 10.4653 15.8606 10.4653C16.3989 10.4653 16.905 10.2428 17.2856 9.83866L18.7816 8.25069C18.5238 8.02992 18.3582 7.69244 18.3582 7.31424C18.3582 6.6508 18.8666 6.11111 19.4916 6.11111C20.1166 6.11111 20.625 6.6508 20.625 7.31424C20.625 7.83758 20.308 8.28269 19.8676 8.44785ZM18.5501 15.9271C18.5501 15.6107 18.3085 15.3542 18.0104 15.3542H4.04963C3.75157 15.3542 3.50991 15.6107 3.50991 15.9271V17.3021C3.50991 17.6185 3.75157 17.875 4.04963 17.875H18.0104C18.3085 17.875 18.5501 17.6185 18.5501 17.3021V15.9271Z"
            fill="url(#paint0_linear_3701_14192)" />
    </g>
    <defs>
        <linearGradient id="paint0_linear_3701_14192" x1="-0.4125" y1="0.287793" x2="24.1753"
            y2="4.60389" gradientUnits="userSpaceOnUse">
            <stop stopColor="#92CBF6" />
            <stop offset="0.045" stopColor="#FF67E7" />
            <stop offset="1" stopColor="#C567FF" />
        </linearGradient>
    </defs>
</svg>