<svg width="265" height="386" viewBox="0 0 265 386" fill="none" xmlns="http://www.w3.org/2000/svg">
    <g clipPath="url(#clip0_4834_14818)">
        <path
            d="M59.2452 313.539C59.6391 315.324 59.5479 317.077 58.9714 318.798C58.4329 320.51 57.3651 322.08 55.7678 323.508C58.4551 323.951 60.5656 324.94 62.0992 326.474C63.6245 327.97 64.6344 329.839 65.1289 332.08L65.1415 332.137C65.6779 334.569 65.6788 336.739 65.1443 338.65C64.6393 340.514 63.7064 342.154 62.3455 343.569C61.0142 344.938 59.3204 346.108 57.2639 347.08C55.237 348.005 52.951 348.748 50.4056 349.309L40.4903 351.495C38.7807 351.871 37.3226 352.034 36.1158 351.981C34.9007 351.89 33.8716 351.559 33.0285 350.988C32.1855 350.417 31.4862 349.596 30.9309 348.523C30.4135 347.442 29.9746 346.085 29.6142 344.451L23.4661 316.587C23.1057 314.953 22.9327 313.537 22.9472 312.339C22.9996 311.132 23.2881 310.093 23.8127 309.22C24.3373 308.348 25.1359 307.634 26.2085 307.079C27.2728 306.486 28.6597 306.001 30.3692 305.624L38.689 303.789C41.3103 303.212 43.7517 302.992 46.0133 303.131C48.3044 303.223 50.3355 303.672 52.1066 304.477C53.9072 305.235 55.4098 306.358 56.6144 307.845C57.8486 309.286 58.7004 311.07 59.1698 313.197L59.2452 313.539ZM39.1327 332.613L40.6666 339.565C40.8175 340.248 41.032 340.679 41.3102 340.857C41.5801 340.997 42.0379 340.995 42.6838 340.853L48.9521 339.471C50.8516 339.052 52.127 338.333 52.7784 337.313C53.4594 336.246 53.6867 335.2 53.4604 334.175L53.3724 333.776C53.1461 332.75 52.5038 331.916 51.4457 331.273C50.4171 330.583 48.9531 330.448 47.0536 330.867L39.1327 332.613ZM36.8374 314.356C36.1916 314.498 35.7799 314.709 35.6022 314.987C35.4162 315.227 35.3986 315.689 35.5495 316.373L37.0833 323.325L43.2947 321.955C44.2444 321.746 45.0361 321.452 45.6696 321.073C46.2947 320.657 46.7744 320.212 47.1084 319.74C47.4721 319.222 47.6986 318.714 47.788 318.216C47.907 317.672 47.912 317.153 47.803 316.659L47.715 316.26C47.4887 315.235 46.8465 314.4 45.7883 313.757C44.7597 313.068 43.2957 312.932 41.3962 313.351L36.8374 314.356Z"
            fill="#9CCC23" />
        <path
            d="M221.391 172.457C221.486 173.816 221.784 175.004 222.284 176.021C222.82 176.998 223.482 177.809 224.268 178.456C225.09 179.061 225.999 179.504 226.993 179.785C227.988 180.066 229.009 180.17 230.057 180.096C231.415 180.001 232.573 179.822 233.529 179.559C234.524 179.294 235.398 178.96 236.15 178.556C236.563 178.332 237.012 178.066 237.498 177.759C238.022 177.449 238.553 177.237 239.091 177.121C240.125 176.853 241.081 176.864 241.959 177.153C242.838 177.442 243.602 178.052 244.252 178.981C245.074 180.132 245.332 181.323 245.029 182.553C244.764 183.781 244.155 184.837 243.204 185.723C241.666 187.157 239.773 188.246 237.524 188.989C235.278 189.771 233.03 190.241 230.779 190.399C228.257 190.577 225.769 190.42 223.317 189.93C220.865 189.439 218.638 188.543 216.636 187.241C214.67 185.897 213.026 184.141 211.704 181.972C210.418 179.761 209.662 177.046 209.436 173.825L208.588 161.717C208.362 158.496 208.733 155.72 209.701 153.39C210.704 151.019 212.087 149.05 213.849 147.483C215.647 145.875 217.726 144.656 220.086 143.827C222.446 142.998 224.887 142.495 227.409 142.318C230.009 142.135 232.299 142.247 234.277 142.654C236.294 143.058 237.894 143.628 239.076 144.363C240.339 145.133 241.248 146.141 241.804 147.389C242.357 148.598 242.327 149.848 241.716 151.139C241.204 152.189 240.478 152.961 239.538 153.456C238.598 153.952 237.617 154.138 236.594 154.015C235.926 153.944 235.312 153.812 234.753 153.618C234.229 153.381 233.747 153.181 233.307 153.017C232.589 152.795 231.838 152.653 231.054 152.591C230.309 152.526 229.334 152.536 228.131 152.621C227.084 152.694 226.087 152.94 225.141 153.357C224.196 153.775 223.359 154.36 222.632 155.113C221.941 155.825 221.399 156.721 221.007 157.802C220.651 158.841 220.52 160.039 220.616 161.397L221.391 172.457Z"
            fill="#9CCC23" />
        <g clipPath="url(#clip1_4834_14818)">
            <path
                d="M155.027 339.156C148.575 337.693 141.465 338.977 137.746 339.891C136.006 340.318 134.247 340.666 132.468 340.881C118.529 342.564 103.898 348.985 92.1431 356.513C71.8681 369.498 74.9921 393.193 87.679 413.656L90.9153 418.876C90.9153 418.876 97.9858 389.201 107.734 386.842C114.822 385.127 122.151 383.709 129.373 382.683C136.898 381.614 144.841 381.605 152.157 379.742C153.113 379.498 154.166 379.139 155.261 378.707C163.853 375.317 169.354 367.506 169.835 358.283C170.408 347.297 164.286 341.255 155.027 339.156Z"
                fill="#FBC74F" />
            <g clipPath="url(#clip2_4834_14818)">
                <ellipse cx="60.9147" cy="67.7021" rx="60.9147" ry="67.7021"
                    transform="matrix(-0.908527 -0.417826 -0.417826 0.908527 276.117 355.583)"
                    fill="#FFE96D" />
                <path
                    d="M168.095 191.972C166.646 178.025 153.61 168.279 139.823 170.835C125.894 173.417 117.213 187.429 121.103 201.051L140.987 270.675L175.604 264.258L168.095 191.972Z"
                    fill="#FBC74F" />
                <path
                    d="M240.909 312.893C234.851 300.247 219.295 295.456 207.173 302.502C194.925 309.621 191.466 325.737 199.713 337.255L241.867 396.128L272.306 378.435L240.909 312.893Z"
                    fill="#FBC74F" />
                <path
                    d="M94.0389 281.048C72.9683 320.256 107.316 345.447 164.615 341.471C208.315 340.8 243.319 312.725 242.797 278.763C241.984 225.861 206.426 217.815 162.726 218.486C106.36 215.667 86.4651 245.144 94.0389 281.048Z"
                    fill="#FFE96D" />
                <path
                    d="M220.653 188.446C218.847 171.054 202.59 158.9 185.397 162.087C168.027 165.307 157.201 182.781 162.053 199.768L186.849 286.592L230.018 278.59L220.653 188.446Z"
                    fill="#FFE96D" />
                <g clipPath="url(#clip3_4834_14818)">
                    <rect width="38.8897" height="44.3161" rx="19.4448"
                        transform="matrix(-0.999882 0.0153578 0.0153578 0.999882 186.219 246.165)"
                        fill="white" />
                    <ellipse cx="15.1366" cy="21.2537" rx="15.1366" ry="21.2537"
                        transform="matrix(-0.816442 0.577427 0.577427 0.816442 163.672 248.98)"
                        fill="#3A312C" />
                    <mask id="mask0_4834_14818" style="mask-type:alpha" maskUnits="userSpaceOnUse"
                        x="145" y="256" width="35" height="39">
                        <ellipse cx="14.0184" cy="21.2537" rx="14.0184" ry="21.2537"
                            transform="matrix(-0.816442 0.577427 0.577427 0.816442 161.848 250.271)"
                            fill="black" />
                    </mask>
                    <g mask="url(#mask0_4834_14818)">
                        <path
                            d="M180.04 286.981L148.377 265.86L134.324 286.927L165.987 308.048L180.04 286.981Z"
                            fill="url(#paint0_linear_4834_14818)" fillOpacity="0.58" />
                    </g>
                </g>
                <g clipPath="url(#clip4_4834_14818)">
                    <rect width="38.8897" height="44.3161" rx="19.4448"
                        transform="matrix(-0.999882 0.0153578 0.0153578 0.999882 140.098 246.874)"
                        fill="white" />
                    <ellipse cx="15.1366" cy="21.2537" rx="15.1366" ry="21.2537"
                        transform="matrix(-0.816442 0.577427 0.577427 0.816442 117.43 249.501)"
                        fill="#3A312C" />
                    <mask id="mask1_4834_14818" style="mask-type:alpha" maskUnits="userSpaceOnUse"
                        x="99" y="257" width="35" height="39">
                        <ellipse cx="14.0184" cy="21.2537" rx="14.0184" ry="21.2537"
                            transform="matrix(-0.816442 0.577427 0.577427 0.816442 115.605 250.793)"
                            fill="black" />
                    </mask>
                    <g mask="url(#mask1_4834_14818)">
                        <path
                            d="M133.798 287.503L102.135 266.382L88.082 287.449L119.745 308.57L133.798 287.503Z"
                            fill="url(#paint1_linear_4834_14818)" fillOpacity="0.58" />
                    </g>
                </g>
                <path
                    d="M123.707 295.05C123.039 303.26 131.251 308.987 141.523 308.329C151.247 308.18 159.037 301.992 158.922 294.509C158.807 287.026 150.851 282.437 141.127 282.586C131.403 282.736 123.592 287.567 123.707 295.05Z"
                    fill="#FFE96D" />
                <path d="M137 283.5C131.5 283.499 122.015 285.398 126.155 295.827" stroke="#F6A444"
                    strokeWidth="1.71185" strokeLinecap="round" />
                <ellipse cx="5.87867" cy="4.06985" rx="5.87867" ry="4.06985"
                    transform="matrix(-0.999882 0.0153578 0.0153578 0.999882 139.801 286.501)"
                    fill="#F6A444" />
                <path
                    d="M206.471 300.533C214.65 303.161 221.43 310.343 222.645 311.684C222.775 311.829 222.882 311.948 223.011 312.094C229.444 319.378 267.112 373.822 267.112 373.822L244.093 387.391C244.093 387.391 230.116 372.638 222.924 365.648C217.695 360.565 212.107 355.615 206.411 351.058C200.476 346.309 193.643 342.26 188.292 336.934C187.594 336.238 186.87 335.393 186.146 334.464C180.474 327.174 179.713 317.652 183.991 309.466C189.087 299.717 197.431 297.63 206.471 300.533Z"
                    fill="#FBC74F" />
                <path d="M157.129 305C157.034 306.902 155.075 310.135 147.999 307.853"
                    stroke="#F6A444" strokeWidth="1.71185" strokeLinecap="round" />
            </g>
            <rect x="131.988" y="350.788" width="88.2044" height="37.1387" rx="7.73723"
                fill="#3D3D3D" />
            <rect x="172.219" y="326.029" width="7.73723" height="24.7591" fill="#6D6D6D" />
            <circle cx="176.862" cy="315.197" r="17.0219" fill="#FF4848" />
            <ellipse cx="177.635" cy="305.139" rx="6.9635" ry="3.86861" fill="#FF7E7E" />
            <path
                d="M126.095 351.938C117.605 353.253 109.785 359.286 108.375 360.421C108.223 360.543 108.1 360.643 107.95 360.768C100.455 366.956 54.7314 414.834 54.7314 414.834L75.3441 431.838C75.3441 431.838 91.4569 419.454 99.6544 413.675C105.615 409.474 111.908 405.459 118.247 401.849C124.852 398.088 132.234 395.158 138.353 390.735C139.152 390.157 139.999 389.435 140.859 388.631C147.602 382.319 149.844 373.032 146.899 364.278C143.392 353.852 135.477 350.485 126.095 351.938Z"
                fill="#FBC74F" />
        </g>
        <path
            d="M57.6908 171.641C58.9564 170.454 60.3899 169.834 61.9914 169.781C63.6452 169.711 65.1817 170.041 66.6007 170.769C67.916 171.444 68.9927 172.455 69.8309 173.803C70.7037 175.17 71.0181 176.686 70.774 178.354L64.9711 222.992L53.5492 217.131L54.83 209.656L41.4872 202.809L36.2088 208.234L24.9947 202.48L57.6908 171.641ZM48.692 195.422L56.6354 199.498L59.3274 184.548L48.692 195.422Z"
            fill="#9CCC23" />
    </g>
    <defs>
        <linearGradient id="paint0_linear_4834_14818" x1="150.156" y1="297.487" x2="164.208"
            y2="276.421" gradientUnits="userSpaceOnUse">
            <stop stopColor="#D9D9D9" stopOpacity="0" />
            <stop offset="1" stopColor="#4F4F4F" />
        </linearGradient>
        <linearGradient id="paint1_linear_4834_14818" x1="103.914" y1="298.009" x2="117.966"
            y2="276.943" gradientUnits="userSpaceOnUse">
            <stop stopColor="#D9D9D9" stopOpacity="0" />
            <stop offset="1" stopColor="#4F4F4F" />
        </linearGradient>
        <clipPath id="clip0_4834_14818">
            <rect width="265" height="386" fill="white" />
        </clipPath>
        <clipPath id="clip1_4834_14818">
            <rect width="212" height="224.38" fill="white" transform="translate(53 162)" />
        </clipPath>
        <clipPath id="clip2_4834_14818">
            <rect width="212" height="224.38" fill="white" transform="matrix(-1 0 0 1 265.066 162)" />
        </clipPath>
        <clipPath id="clip3_4834_14818">
            <rect width="38.8897" height="44.3161" rx="19.4448"
                transform="matrix(-0.999882 0.0153578 0.0153578 0.999882 186.219 246.165)"
                fill="white" />
        </clipPath>
        <clipPath id="clip4_4834_14818">
            <rect width="38.8897" height="44.3161" rx="19.4448"
                transform="matrix(-0.999882 0.0153578 0.0153578 0.999882 140.098 246.874)"
                fill="white" />
        </clipPath>
    </defs>
</svg>