<svg xmlns="http://www.w3.org/2000/svg" width="23" height="22" viewBox="0 0 23 22" fill="none">
    <path
        d="M11.7393 4.35121C11.6753 4.29001 11.5902 4.25586 11.5017 4.25586C11.4131 4.25586 11.328 4.29001 11.2641 4.35121L3.35352 11.9081C3.31992 11.9403 3.29319 11.9789 3.27495 12.0216C3.25671 12.0644 3.24733 12.1104 3.24738 12.1569L3.24609 19.2493C3.24609 19.614 3.39096 19.9637 3.64882 20.2216C3.90668 20.4795 4.25642 20.6243 4.62109 20.6243H8.75039C8.93273 20.6243 9.10759 20.5519 9.23653 20.423C9.36546 20.294 9.43789 20.1192 9.43789 19.9368V14.0931C9.43789 14.0019 9.47411 13.9145 9.53857 13.85C9.60304 13.7855 9.69047 13.7493 9.78164 13.7493H13.2191C13.3103 13.7493 13.3977 13.7855 13.4622 13.85C13.5267 13.9145 13.5629 14.0019 13.5629 14.0931V19.9368C13.5629 20.1192 13.6353 20.294 13.7643 20.423C13.8932 20.5519 14.0681 20.6243 14.2504 20.6243H18.378C18.7426 20.6243 19.0924 20.4795 19.3502 20.2216C19.6081 19.9637 19.753 19.614 19.753 19.2493V12.1569C19.753 12.1104 19.7436 12.0644 19.7254 12.0216C19.7072 11.9789 19.6804 11.9403 19.6468 11.9081L11.7393 4.35121Z"
        fill="white" />
    <path
        d="M21.5938 10.4908L18.3797 7.41598V2.75C18.3797 2.56766 18.3073 2.3928 18.1784 2.26386C18.0495 2.13493 17.8746 2.0625 17.6922 2.0625H15.6297C15.4474 2.0625 15.2725 2.13493 15.1436 2.26386C15.0147 2.3928 14.9422 2.56766 14.9422 2.75V4.125L12.4535 1.74539C12.2206 1.50992 11.8743 1.375 11.5 1.375C11.1271 1.375 10.7816 1.50992 10.5487 1.74582L1.40924 10.49C1.14197 10.7478 1.10845 11.1719 1.35166 11.4512C1.41273 11.5217 1.48751 11.579 1.57144 11.6197C1.65538 11.6604 1.74671 11.6835 1.83989 11.6878C1.93306 11.6921 2.02613 11.6773 2.11343 11.6445C2.20072 11.6116 2.28042 11.5614 2.34767 11.4967L11.2637 2.97688C11.3277 2.91568 11.4128 2.88152 11.5013 2.88152C11.5898 2.88152 11.675 2.91568 11.7389 2.97688L20.6558 11.4967C20.7872 11.6227 20.9631 11.6914 21.145 11.6879C21.327 11.6843 21.5001 11.6088 21.6265 11.4778C21.8903 11.2045 21.8684 10.7534 21.5938 10.4908Z"
        fill="white" />
</svg>