<svg width="141" height="24" viewBox="0 0 141 24" fill="none" xmlns="http://www.w3.org/2000/svg">
    <path
        d="M126.52 23.4723C124.986 23.4723 123.742 22.2286 123.742 20.6945V2.77778C123.742 0.944446 125.103 0 126.548 0C127.992 0 129.298 0.944446 129.298 2.77778V12.4445L134.214 7.02779C135.159 5.97224 136.909 5.69446 138.076 6.58335C139.242 7.47224 139.409 9.44447 138.381 10.4167L134.714 13.9445L138.251 19.4339C139.375 21.1771 138.123 23.4723 136.049 23.4723C135.134 23.4723 134.285 22.9948 133.81 22.2127L130.964 17.5278L129.298 19.1389V20.6945C129.298 22.2286 128.054 23.4723 126.52 23.4723Z"
        fill="black" />
    <path
        d="M105.129 16.3057V13.7501C105.129 7.77789 109.407 6.05566 113.184 6.05566C116.879 6.05566 121.24 7.77789 121.24 13.7501V16.3057C121.24 22.2779 116.879 24.0001 113.184 24.0001C109.49 24.0001 105.129 22.2779 105.129 16.3057ZM115.657 16.5557V13.5001C115.657 11.5279 114.379 10.7501 113.184 10.7501C111.99 10.7501 110.712 11.5279 110.712 13.5001V16.5557C110.712 18.5279 111.99 19.3057 113.184 19.3057C114.379 19.3057 115.657 18.5279 115.657 16.5557Z"
        fill="black" />
    <path
        d="M86.793 16.3057V13.7501C86.793 7.77789 91.0708 6.05566 94.8485 6.05566C98.543 6.05566 102.904 7.77789 102.904 13.7501V16.3057C102.904 22.2779 98.543 24.0001 94.8485 24.0001C91.1541 24.0001 86.793 22.2779 86.793 16.3057ZM97.3208 16.5557V13.5001C97.3208 11.5279 96.043 10.7501 94.8485 10.7501C93.6541 10.7501 92.3763 11.5279 92.3763 13.5001V16.5557C92.3763 18.5279 93.6541 19.3057 94.8485 19.3057C96.043 19.3057 97.3208 18.5279 97.3208 16.5557Z"
        fill="black" />
    <path
        d="M73.0232 21.8856C72.8799 23.0609 71.882 23.9445 70.698 23.9445C69.4042 23.9445 68.3555 22.8957 68.3555 21.602V2.77778C68.3555 0.944446 69.6888 0 71.161 0C72.6333 0 73.9944 0.944446 73.9944 2.77778V7.41668C74.9666 6.61113 76.2166 6.11113 77.7444 6.11113C81.4111 6.11113 84.5222 7.91668 84.5222 13.7778V16.2778C84.5222 22.1389 81.4111 23.9445 77.7444 23.9445C75.7166 23.9445 74.1333 23.0834 73.0499 21.6667L73.0232 21.8856ZM78.7999 16.6667V13.3889C78.7999 11.5 77.3833 10.8611 76.411 10.8611C75.4666 10.8611 74.0499 11.4722 73.9944 13.25V16.6667C73.9944 18.5556 75.4388 19.1945 76.411 19.1945C77.3833 19.1945 78.7999 18.5556 78.7999 16.6667Z"
        fill="black" />
    <path
        d="M31.5091 23.9447C27.9813 23.9447 25.1758 22.1947 25.1758 16.3336V8.88911C25.1758 6.97244 26.4813 6.11133 28.0369 6.11133C29.5925 6.11133 30.898 6.97244 30.898 8.88911V16.6669C30.898 18.5558 32.148 19.1947 33.0925 19.1947C34.0091 19.1947 35.2591 18.5836 35.3147 16.8058V8.86133C35.3147 6.97244 36.5925 6.11133 38.1203 6.11133C39.6758 6.11133 40.9536 6.97244 40.9536 8.86133V21.6477C40.9536 22.9468 39.9004 24 38.6013 24C37.4202 24 36.4222 23.1242 36.2688 21.9531L36.2314 21.6669C35.2036 23.0836 33.5091 23.9447 31.5091 23.9447Z"
        fill="black" />
    <path
        d="M19.6072 23.4723C18.0271 23.4723 16.7461 22.1913 16.7461 20.6112V2.77778C16.7461 0.861114 18.0517 0 19.6072 0C21.1628 0 22.4683 0.861114 22.4683 2.77778V20.6112C22.4683 22.1913 21.1874 23.4723 19.6072 23.4723Z"
        fill="black" />
    <path
        d="M3.3889 23.4723C1.7934 23.4723 0.5 22.1789 0.5 20.5834V3.77778C0.5 1.86111 1.83334 1 3.3889 1C4.94445 1 6.27779 1.86111 6.27779 3.77778V20.5834C6.27779 22.1789 4.98439 23.4723 3.3889 23.4723Z"
        fill="black" />
    <path fillRule="evenodd" clipRule="evenodd"
        d="M47.9586 6.34814C50.5666 6.34814 52.6808 8.46236 52.6808 11.0704V14.1259H55.7364C58.3444 14.1259 60.4586 16.2402 60.4586 18.8482C60.4586 21.4562 58.3444 23.5704 55.7364 23.5704H47.9586C45.3505 23.5704 43.2363 21.4562 43.2363 18.8482V11.0704C43.2363 8.46236 45.3505 6.34814 47.9586 6.34814Z"
        fill="#FF8844" />
</svg>