<svg width="11" height="12" viewBox="0 0 11 12" fill="none" xmlns="http://www.w3.org/2000/svg">
    <path
        d="M1.6572 11.753C1.46529 11.7527 1.27678 11.7024 1.11021 11.6071C0.735129 11.3945 0.501953 10.9819 0.501953 10.534V1.46956C0.501953 1.0204 0.735129 0.609059 1.11021 0.396513C1.28075 0.298503 1.47448 0.248101 1.67116 0.250575C1.86784 0.253049 2.06025 0.308309 2.22827 0.410578L9.97526 5.04784C10.1367 5.14908 10.2698 5.28966 10.3621 5.45641C10.4543 5.62315 10.5027 5.8106 10.5027 6.00117C10.5027 6.19174 10.4543 6.37919 10.3621 6.54593C10.2698 6.71268 10.1367 6.85327 9.97526 6.9545L2.22702 11.593C2.05507 11.697 1.85813 11.7523 1.6572 11.753Z"
        fill="current" />
</svg>