<svg width="264" height="284" viewBox="0 0 264 284" fill="none" xmlns="http://www.w3.org/2000/svg">
    <g clipPath="url(#clip0_4654_7852)">
        <path
            d="M61.2945 203.877C69.2268 203.295 77.5306 207.039 79.25 207.864C79.4701 207.97 79.6499 208.058 79.8677 208.168C88.2891 212.426 139.997 246.416 139.997 246.416L124.705 266.359C124.705 266.359 107.319 258.419 98.5848 254.858C92.2342 252.269 85.6174 249.922 79.0448 247.955C72.1967 245.905 64.8119 244.782 58.2692 242.023C57.4148 241.662 56.4854 241.18 55.5275 240.625C48.013 236.267 43.9936 228.232 44.8402 219.587C45.8484 209.29 52.3896 204.53 61.2945 203.877Z"
            fill="#FBC74F" />
        <ellipse cx="68.6607" cy="70.0478" rx="68.6607" ry="70.0478"
            transform="matrix(-0.954554 0.298039 0.298039 0.954554 230.691 196.444)" fill="#FFE96D" />
        <path
            d="M192.982 84.158C199.505 65.81 188.992 45.7985 170.182 40.7585C151.179 35.6666 131.919 48.0402 128.65 67.4405L111.944 166.601L159.173 179.256L192.982 84.158Z"
            fill="#FBC74F" />
        <path
            d="M75.5382 173.279C51.405 216.577 89.221 245.216 153.093 241.769C201.765 241.769 241.223 211.105 241.223 173.279C241.223 114.358 201.765 104.79 153.093 104.79C90.3757 100.687 67.7186 133.17 75.5382 173.279Z"
            fill="#FFE96D" />
        <path d="M110.25 80.7793H185.985V98.8446V107.216H110.25V98.8446V80.7793Z" fill="#3A312C" />
        <path d="M110.25 80.7793H185.985V98.8446V107.216H110.25V98.8446V80.7793Z" fill="#3A312C" />
        <path
            d="M144.073 52.4828C146.235 51.7409 148.584 51.7487 150.741 52.505L205.384 71.6643V73.0364C205.384 74.4164 204.548 75.6587 203.27 76.1782L201.811 76.771L194.039 79.5969L178.497 85.2488L150.884 95.2899C148.64 96.1056 146.182 96.1066 143.938 95.2926L91.2516 76.181C90.3573 75.8566 89.7617 75.0071 89.7617 74.0558V71.1191L144.073 52.4828Z"
            fill="#55463F" />
        <path
            d="M143.691 50.5341C146.186 49.6267 148.921 49.6267 151.417 50.5341L203.882 69.6124C205.866 70.3339 205.866 73.1401 203.882 73.8617L151.417 92.9399C148.921 93.8473 146.186 93.8473 143.691 92.9399L91.2256 73.8617C89.2414 73.1401 89.2414 70.3339 91.2256 69.6124L143.691 50.5341Z"
            fill="#756A65" />
        <path
            d="M148.118 121.147C169.032 121.147 185.985 114.91 185.985 107.216H110.25C110.25 114.91 127.204 121.147 148.118 121.147Z"
            fill="#3A312C" />
        <path
            d="M247.247 94.2308C253.77 75.8827 243.258 55.8712 224.448 50.8312C205.445 45.7393 186.184 58.113 182.916 77.5132L166.21 176.674L213.439 189.329L247.247 94.2308Z"
            fill="#FFE96D" />
        <g clipPath="url(#clip1_4654_7852)">
            <rect width="43.3096" height="49.3528" rx="21.6548"
                transform="matrix(-1 0 0 1 178.777 136.012)" fill="white" />
            <ellipse cx="15.6116" cy="23.6692" rx="15.6116" ry="23.6692"
                transform="matrix(-1 0 0 1 165.684 137.02)" fill="#3A312C" />
            <mask id="mask0_4654_7852" style="mask-type:alpha" maskUnits="userSpaceOnUse" x="134"
                y="137" width="32" height="48">
                <ellipse cx="15.6116" cy="23.6692" rx="15.6116" ry="23.6692"
                    transform="matrix(-1 0 0 1 165.684 137.02)" fill="black" />
            </mask>
            <g mask="url(#mask0_4654_7852)">
                <path
                    d="M165.683 177.063L135.711 147.091L115.77 167.033L145.742 197.005L165.683 177.063Z"
                    fill="url(#paint0_linear_4654_7852)" fillOpacity="0.58" />
            </g>
        </g>
        <g clipPath="url(#clip2_4654_7852)">
            <rect width="43.3096" height="49.3528" rx="21.6548"
                transform="matrix(-1 0 0 1 127.406 136.012)" fill="white" />
            <ellipse cx="15.6116" cy="23.6692" rx="15.6116" ry="23.6692"
                transform="matrix(-1 0 0 1 114.312 137.02)" fill="#3A312C" />
            <mask id="mask1_4654_7852" style="mask-type:alpha" maskUnits="userSpaceOnUse" x="83"
                y="137" width="32" height="48">
                <ellipse cx="15.6116" cy="23.6692" rx="15.6116" ry="23.6692"
                    transform="matrix(-1 0 0 1 114.312 137.02)" fill="black" />
            </mask>
            <g mask="url(#mask1_4654_7852)">
                <path
                    d="M114.312 177.063L84.34 147.091L64.3984 167.033L94.3706 197.005L114.312 177.063Z"
                    fill="url(#paint1_linear_4654_7852)" fillOpacity="0.58" />
            </g>
        </g>
        <path
            d="M108.33 189.377C107.445 198.508 116.491 205.026 127.94 204.469C138.771 204.469 147.551 197.712 147.551 189.377C147.551 181.043 138.771 175.797 127.94 175.797C117.11 175.797 108.33 181.043 108.33 189.377Z"
            fill="#FFE96D" />
        <path d="M122.371 177.614C116.831 176.607 106.86 177.513 111.292 189.197" stroke="#F6A444"
            strokeWidth="3.0216" strokeLinecap="round" />
        <path d="M157.625 203.3C157.457 206.657 153.999 212.365 141.51 208.336" stroke="#F6A444"
            strokeWidth="3.0216" strokeLinecap="round" />
        <ellipse cx="6.5468" cy="4.5324" rx="6.5468" ry="4.5324"
            transform="matrix(-1 0 0 1 126.402 180.133)" fill="#F6A444" />
        <path
            d="M212.882 185.954C222.37 191.021 229.113 201.385 230.309 203.309C230.438 203.516 230.542 203.686 230.668 203.895C236.963 214.308 271.178 289.798 271.178 289.798L239.787 301.361C239.787 301.361 225.873 280.061 218.578 269.842C213.274 262.411 207.499 255.063 201.503 248.175C195.255 240.998 187.745 234.481 182.345 226.724C181.64 225.71 180.938 224.507 180.255 223.2C174.899 212.953 176.092 201.052 183.194 191.927C191.652 181.059 202.398 180.356 212.882 185.954Z"
            fill="#FBC74F" />
        <path
            d="M175.008 84.2549L165.684 87.6137L165.684 124.764C165.684 125.104 166.129 125.232 166.31 124.944L170.135 118.869C170.246 118.693 170.488 118.658 170.645 118.794L174.446 122.093C174.666 122.283 175.008 122.127 175.008 121.837V84.2549Z"
            fill="#FFC83C" />
    </g>
    <path
        d="M55.012 60.0425C45.822 60.1609 42.4114 53.0131 41.6935 48.6311C41.6094 48.1178 41.9691 47.6514 42.484 47.5783C49.19 46.6258 60.4313 46.9277 54.4448 48.6383C52.2954 49.2525 52.8988 55.7535 55.2635 59.5708C55.3882 59.7721 55.2487 60.0394 55.012 60.0425Z"
        fill="#5AA6FF" />
    <rect width="112" height="50" rx="25" fill="#5AA6FF" />
    <path
        d="M31.0938 21.5195C30.7656 20.4531 30.2005 19.6237 29.3984 19.0312C28.5964 18.4297 27.6029 18.1289 26.418 18.1289C25.3516 18.1289 24.3991 18.4023 23.5605 18.9492C22.7311 19.487 22.084 20.2799 21.6191 21.3281C21.1543 22.3763 20.9219 23.625 20.9219 25.0742C20.9219 26.5417 21.1543 27.804 21.6191 28.8613C22.084 29.9095 22.7357 30.707 23.5742 31.2539C24.4128 31.8008 25.388 32.0742 26.5 32.0742C27.4844 32.0742 28.3457 31.8874 29.084 31.5137C29.8314 31.1309 30.4056 30.5931 30.8066 29.9004C31.2168 29.1986 31.431 28.3828 31.4492 27.4531H26.8555V24.6367H34.8945V27.0156C34.8945 28.6836 34.5345 30.1419 33.8145 31.3906C33.1035 32.6393 32.1146 33.6009 30.8477 34.2754C29.5807 34.9408 28.1315 35.2734 26.5 35.2734C24.6862 35.2734 23.0866 34.8633 21.7012 34.043C20.3158 33.2135 19.2402 32.0332 18.4746 30.502C17.7181 28.9616 17.3398 27.1615 17.3398 25.1016C17.3398 23.0326 17.7272 21.2324 18.502 19.7012C19.2858 18.1608 20.3613 16.9805 21.7285 16.1602C23.1048 15.3398 24.6589 14.9297 26.3906 14.9297C27.8216 14.9297 29.1341 15.2077 30.3281 15.7637C31.5312 16.3197 32.5156 17.099 33.2812 18.1016C34.0469 19.0951 34.5299 20.2344 34.7305 21.5195H31.0938ZM37.845 20.1523H41.2357V22.6133H41.3997C41.664 21.7656 42.1243 21.1094 42.7806 20.6445C43.4368 20.1706 44.1979 19.9336 45.0638 19.9336C45.4648 19.9336 45.8841 19.9609 46.3216 20.0156V23.2422C46.1666 23.1875 45.9297 23.1419 45.6107 23.1055C45.3008 23.0599 45 23.0326 44.7083 23.0234C44.0703 23.0234 43.4961 23.1647 42.9857 23.4473C42.4752 23.7207 42.0742 24.1035 41.7825 24.5957C41.4909 25.0788 41.345 25.6302 41.345 26.25V35H37.845V20.1523ZM54.3854 35.3008C52.9088 35.3008 51.6282 34.9909 50.5436 34.3711C49.4589 33.7422 48.625 32.8535 48.0416 31.7051C47.4583 30.5566 47.1666 29.2122 47.1666 27.6719C47.1666 26.1497 47.4583 24.8099 48.0416 23.6523C48.625 22.4857 49.4453 21.5788 50.5026 20.9316C51.569 20.2845 52.7994 19.9609 54.194 19.9609C55.4518 19.9609 56.5911 20.2344 57.6119 20.7812C58.6419 21.319 59.4576 22.1484 60.0592 23.2695C60.6699 24.3906 60.9752 25.7852 60.9752 27.4531V28.5469H50.6119C50.6302 29.3763 50.7942 30.0964 51.1041 30.707C51.4231 31.3086 51.8606 31.7689 52.4166 32.0879C52.9817 32.4069 53.638 32.5664 54.3854 32.5664C55.1328 32.5664 55.7662 32.4297 56.2858 32.1562C56.8053 31.8737 57.1836 31.5 57.4205 31.0352H60.8385C60.6289 31.8919 60.2324 32.6439 59.649 33.291C59.0657 33.929 58.3229 34.4258 57.4205 34.7812C56.5273 35.1276 55.5156 35.3008 54.3854 35.3008ZM57.6393 26.168C57.6393 25.5026 57.4934 24.9056 57.2018 24.377C56.9192 23.8392 56.5182 23.4199 55.9987 23.1191C55.4882 22.8184 54.9049 22.668 54.2487 22.668C53.5742 22.668 52.9681 22.8275 52.4303 23.1465C51.8925 23.4564 51.4687 23.8802 51.1588 24.418C50.8489 24.9557 50.6712 25.5391 50.6256 26.168H57.6393ZM62.8867 30.8164C62.8867 29.2943 63.4016 28.1914 64.4316 27.5078C65.4706 26.8242 66.7968 26.4323 68.4101 26.332C69.2395 26.2682 70.511 26.1999 72.2245 26.127L72.2109 24.9375C72.2109 24.1992 71.9785 23.6296 71.5136 23.2285C71.0579 22.8184 70.3971 22.6133 69.5312 22.6133C68.7747 22.6133 68.1549 22.7728 67.6718 23.0918C67.1887 23.4108 66.8788 23.8438 66.7421 24.3906H63.3788C63.4609 23.543 63.7617 22.7865 64.2812 22.1211C64.8007 21.4466 65.5162 20.918 66.4277 20.5352C67.3391 20.1523 68.401 19.9609 69.6132 19.9609C70.6523 19.9609 71.6275 20.125 72.539 20.4531C73.4596 20.7721 74.2115 21.3145 74.7949 22.0801C75.3873 22.8366 75.6835 23.8346 75.6835 25.0742V35H72.3476V32.9492H72.2382C71.8736 33.6419 71.3268 34.207 70.5976 34.6445C69.8684 35.082 68.957 35.3008 67.8632 35.3008C66.9062 35.3008 66.0494 35.1276 65.2929 34.7812C64.5455 34.4349 63.9576 33.929 63.5292 33.2637C63.1009 32.5892 62.8867 31.7734 62.8867 30.8164ZM66.2499 30.7891C66.2499 31.4089 66.4778 31.8874 66.9335 32.2246C67.3984 32.5618 68.0091 32.7305 68.7656 32.7305C69.4492 32.7305 70.0553 32.5938 70.5839 32.3203C71.1126 32.0469 71.5182 31.6777 71.8007 31.2129C72.0924 30.7389 72.2382 30.224 72.2382 29.668L72.2245 28.4512C71.7688 28.4694 71.2265 28.5013 70.5976 28.5469C69.9778 28.5833 69.4309 28.6198 68.957 28.6562C68.1093 28.7292 67.4439 28.9434 66.9609 29.2988C66.4869 29.6543 66.2499 30.151 66.2499 30.7891ZM86.2629 22.832H83.3372V30.543C83.3372 31.2357 83.4875 31.696 83.7883 31.9238C84.0982 32.1517 84.5357 32.2656 85.1008 32.2656C85.4928 32.2656 85.9439 32.2474 86.4543 32.2109V35.0547C85.8892 35.1458 85.2193 35.1914 84.4446 35.1914C83.5513 35.1914 82.7584 35.041 82.0657 34.7402C81.373 34.4395 80.8306 33.9837 80.4387 33.373C80.0468 32.7624 79.8554 32.0104 79.8645 31.1172V22.832H77.7317V20.1523H79.8645V16.5977H83.3372V20.1523H86.2629V22.832ZM92.7681 29.1758H89.6783L89.3502 15.2031H93.0689L92.7681 29.1758ZM89.1041 33.0859C89.1041 32.7122 89.1998 32.3659 89.3912 32.0469C89.5826 31.7188 89.8423 31.459 90.1705 31.2676C90.4986 31.0762 90.8541 30.9805 91.2369 30.9805C91.6106 30.9805 91.9569 31.0762 92.2759 31.2676C92.6041 31.459 92.8638 31.7188 93.0552 32.0469C93.2466 32.3659 93.3423 32.7122 93.3423 33.0859C93.3423 33.4688 93.2466 33.8242 93.0552 34.1523C92.8638 34.4805 92.6041 34.7402 92.2759 34.9316C91.9569 35.123 91.6106 35.2188 91.2369 35.2188C90.8541 35.2188 90.4986 35.123 90.1705 34.9316C89.8423 34.7402 89.5826 34.4805 89.3912 34.1523C89.1998 33.8242 89.1041 33.4688 89.1041 33.0859Z"
        fill="white" />
    <defs>
        <linearGradient id="paint0_linear_4654_7852" x1="130.756" y1="182.019" x2="150.697"
            y2="162.077" gradientUnits="userSpaceOnUse">
            <stop stopColor="#D9D9D9" stopOpacity="0" />
            <stop offset="1" stopColor="#4F4F4F" />
        </linearGradient>
        <linearGradient id="paint1_linear_4654_7852" x1="79.3845" y1="182.019" x2="99.3261"
            y2="162.077" gradientUnits="userSpaceOnUse">
            <stop stopColor="#D9D9D9" stopOpacity="0" />
            <stop offset="1" stopColor="#4F4F4F" />
        </linearGradient>
        <clipPath id="clip0_4654_7852">
            <rect width="226" height="245" fill="white" transform="matrix(-1 0 0 1 263.77 38.7651)" />
        </clipPath>
        <clipPath id="clip1_4654_7852">
            <rect width="43.3096" height="49.3528" rx="21.6548"
                transform="matrix(-1 0 0 1 178.777 136.012)" fill="white" />
        </clipPath>
        <clipPath id="clip2_4654_7852">
            <rect width="43.3096" height="49.3528" rx="21.6548"
                transform="matrix(-1 0 0 1 127.406 136.012)" fill="white" />
        </clipPath>
    </defs>
</svg>