<svg width="289" height="282" viewBox="0 0 289 282" fill="none" xmlns="http://www.w3.org/2000/svg">
    <g clipPath="url(#clip0_4654_7854)">
        <path
            d="M86.525 202.112C94.4572 201.53 102.761 205.275 104.48 206.1C104.701 206.205 104.88 206.294 105.098 206.404C113.52 210.661 165.227 244.652 165.227 244.652L149.935 264.595C149.935 264.595 132.55 256.655 123.815 253.094C117.465 250.505 110.848 248.157 104.275 246.19C97.4271 244.14 90.0424 243.017 83.4997 240.258C82.6452 239.898 81.7159 239.416 80.7579 238.86C73.2434 234.503 69.2241 226.467 70.0706 217.822C71.0789 207.526 77.62 202.766 86.525 202.112Z"
            fill="#FBC74F" />
        <ellipse cx="68.6607" cy="70.0478" rx="68.6607" ry="70.0478"
            transform="matrix(-0.954554 0.298039 0.298039 0.954554 255.926 194.68)" fill="#FFE96D" />
        <path
            d="M218.216 82.3929C224.739 64.0449 214.226 44.0333 195.417 38.9933C176.414 33.9014 157.153 46.2751 153.885 65.6753L137.179 164.836L184.407 177.491L218.216 82.3929Z"
            fill="#FBC74F" />
        <path
            d="M100.773 171.514C76.6394 214.812 114.455 243.45 178.327 240.003C227 240.003 266.457 209.339 266.457 171.514C266.457 112.592 227 103.024 178.327 103.024C115.61 98.9217 92.953 131.404 100.773 171.514Z"
            fill="#FFE96D" />
        <path d="M135.484 79.0142H211.22V97.0794V105.451H135.484V97.0794V79.0142Z" fill="#3A312C" />
        <path d="M135.484 79.0142H211.22V97.0794V105.451H135.484V97.0794V79.0142Z" fill="#3A312C" />
        <path
            d="M169.308 50.7176C171.47 49.9757 173.819 49.9836 175.976 50.7399L230.619 69.8992V71.2713C230.619 72.6513 229.783 73.8936 228.504 74.413L227.045 75.0058L219.274 77.8318L203.731 83.4837L176.118 93.5248C173.875 94.3405 171.416 94.3415 169.172 93.5275L116.486 74.4159C115.592 74.0915 114.996 73.2419 114.996 72.2906V69.3539L169.308 50.7176Z"
            fill="#55463F" />
        <path
            d="M168.925 48.769C171.421 47.8616 174.156 47.8616 176.651 48.769L229.116 67.8472C231.1 68.5688 231.1 71.375 229.116 72.0965L176.651 91.1747C174.156 92.0822 171.421 92.0822 168.925 91.1747L116.46 72.0965C114.476 71.375 114.476 68.5688 116.46 67.8472L168.925 48.769Z"
            fill="#756A65" />
        <path
            d="M173.352 119.382C194.266 119.382 211.22 113.145 211.22 105.451H135.484C135.484 113.145 152.438 119.382 173.352 119.382Z"
            fill="#3A312C" />
        <path
            d="M272.482 92.4656C279.005 74.1176 268.492 54.1061 249.682 49.0661C230.679 43.9742 211.419 56.3478 208.15 75.7481L191.444 174.909L238.673 187.564L272.482 92.4656Z"
            fill="#FFE96D" />
        <g clipPath="url(#clip1_4654_7854)">
            <rect width="43.3096" height="49.3528" rx="21.6548"
                transform="matrix(-1 0 0 1 204.012 134.246)" fill="white" />
            <ellipse cx="15.6116" cy="23.6692" rx="15.6116" ry="23.6692"
                transform="matrix(-1 0 0 1 190.918 135.254)" fill="#3A312C" />
            <mask id="mask0_4654_7854" style="mask-type:alpha" maskUnits="userSpaceOnUse" x="159"
                y="135" width="32" height="48">
                <ellipse cx="15.6116" cy="23.6692" rx="15.6116" ry="23.6692"
                    transform="matrix(-1 0 0 1 190.918 135.254)" fill="black" />
            </mask>
            <g mask="url(#mask0_4654_7854)">
                <path
                    d="M190.918 175.298L160.945 145.326L141.004 165.267L170.976 195.239L190.918 175.298Z"
                    fill="url(#paint0_linear_4654_7854)" fillOpacity="0.58" />
            </g>
        </g>
        <g clipPath="url(#clip2_4654_7854)">
            <rect width="43.3096" height="49.3528" rx="21.6548"
                transform="matrix(-1 0 0 1 152.641 134.246)" fill="white" />
            <ellipse cx="15.6116" cy="23.6692" rx="15.6116" ry="23.6692"
                transform="matrix(-1 0 0 1 139.547 135.254)" fill="#3A312C" />
            <mask id="mask1_4654_7854" style="mask-type:alpha" maskUnits="userSpaceOnUse" x="108"
                y="135" width="32" height="48">
                <ellipse cx="15.6116" cy="23.6692" rx="15.6116" ry="23.6692"
                    transform="matrix(-1 0 0 1 139.547 135.254)" fill="black" />
            </mask>
            <g mask="url(#mask1_4654_7854)">
                <path
                    d="M139.547 175.298L109.574 145.326L89.6328 165.267L119.605 195.239L139.547 175.298Z"
                    fill="url(#paint1_linear_4654_7854)" fillOpacity="0.58" />
            </g>
        </g>
        <path
            d="M133.564 187.612C132.68 196.743 141.726 203.26 153.175 202.703C164.005 202.703 172.785 195.947 172.785 187.612C172.785 179.277 164.005 174.031 153.175 174.031C142.344 174.031 133.564 179.277 133.564 187.612Z"
            fill="#FFE96D" />
        <path d="M147.605 175.848C142.066 174.841 132.095 175.748 136.526 187.431" stroke="#FF756C"
            strokeWidth="3.0216" strokeLinecap="round" />
        <path d="M182.855 201.535C182.688 204.892 179.23 210.599 166.74 206.571" stroke="#FF756C"
            strokeWidth="3.0216" strokeLinecap="round" />
        <ellipse cx="6.5468" cy="4.5324" rx="6.5468" ry="4.5324"
            transform="matrix(-1 0 0 1 151.633 178.368)" fill="#FF756C" />
        <path
            d="M238.112 184.189C247.6 189.256 254.343 199.619 255.54 201.544C255.668 201.751 255.773 201.921 255.899 202.13C262.194 212.543 296.409 288.033 296.409 288.033L265.017 299.596C265.017 299.596 251.103 278.296 243.808 268.076C238.505 260.646 232.729 253.298 226.733 246.41C220.485 239.233 212.975 232.716 207.576 224.958C206.871 223.945 206.168 222.742 205.485 221.435C200.13 211.187 201.323 199.287 208.424 190.162C216.882 179.294 227.628 178.591 238.112 184.189Z"
            fill="#FBC74F" />
        <path
            d="M200.238 82.4902L190.915 85.8491L190.915 122.999C190.915 123.339 191.36 123.468 191.541 123.18L195.366 117.105C195.477 116.929 195.718 116.893 195.875 117.029L199.677 120.328C199.896 120.519 200.238 120.363 200.238 120.072V82.4902Z"
            fill="#FFC83C" />
    </g>
    <path
        d="M98.3674 60.2378C89.1775 60.3562 85.7669 53.2085 85.049 48.8264C84.9649 48.3131 85.3245 47.8467 85.8395 47.7736C92.5455 46.8211 103.787 47.123 97.8003 48.8336C95.6509 49.4478 96.2543 55.9488 98.619 59.7661C98.7437 59.9674 98.6042 60.2348 98.3674 60.2378Z"
        fill="#FF756C" />
    <rect y="0.195312" width="150" height="50" rx="25" fill="#FF756C" />
    <path
        d="M31.1758 22.0703C31.0391 21.2956 30.7474 20.6257 30.3008 20.0605C29.8633 19.4954 29.3118 19.0671 28.6465 18.7754C27.9811 18.4746 27.2474 18.3242 26.4453 18.3242C25.3607 18.3242 24.3991 18.5977 23.5605 19.1445C22.7311 19.6823 22.084 20.4753 21.6191 21.5234C21.1543 22.5716 20.9219 23.8294 20.9219 25.2969C20.9219 26.7826 21.1543 28.0495 21.6191 29.0977C22.084 30.1367 22.7311 30.9251 23.5605 31.4629C24.3991 32.0007 25.3607 32.2695 26.4453 32.2695C27.2292 32.2695 27.9492 32.1283 28.6055 31.8457C29.2708 31.554 29.8268 31.1348 30.2734 30.5879C30.7201 30.041 31.0208 29.3893 31.1758 28.6328H34.7578C34.5755 29.9089 34.1152 31.0664 33.377 32.1055C32.6387 33.1445 31.668 33.9648 30.4648 34.5664C29.2708 35.168 27.9128 35.4688 26.3906 35.4688C24.6406 35.4688 23.0775 35.0632 21.7012 34.252C20.334 33.4316 19.263 32.2559 18.4883 30.7246C17.7227 29.1842 17.3398 27.375 17.3398 25.2969C17.3398 23.2096 17.7272 21.4004 18.502 19.8691C19.2858 18.3379 20.3613 17.1667 21.7285 16.3555C23.1048 15.5352 24.6589 15.125 26.3906 15.125C27.849 15.125 29.1751 15.403 30.3691 15.959C31.5632 16.5059 32.543 17.3034 33.3086 18.3516C34.0742 19.3906 34.5573 20.6302 34.7578 22.0703H31.1758ZM41.0443 35.1953H37.5443V15.3984H40.9622V22.8633H41.1536C41.5 21.9974 42.0423 21.332 42.7806 20.8672C43.5189 20.3932 44.444 20.1562 45.556 20.1562C46.5859 20.1562 47.4837 20.375 48.2493 20.8125C49.0241 21.2409 49.6211 21.8743 50.0403 22.7129C50.4596 23.5514 50.6693 24.5586 50.6693 25.7344V35.1953H47.1966V26.2812C47.1875 25.2695 46.9277 24.4857 46.4173 23.9297C45.9069 23.3737 45.1914 23.1003 44.2708 23.1094C43.6419 23.1003 43.0814 23.2324 42.5892 23.5059C42.1061 23.7702 41.7278 24.1621 41.4544 24.6816C41.181 25.1921 41.0443 25.7982 41.0443 26.5V35.1953ZM60.4557 35.4961C58.9791 35.4961 57.6985 35.1862 56.6139 34.5664C55.5293 33.9375 54.6953 33.0488 54.1119 31.9004C53.5286 30.752 53.2369 29.4076 53.2369 27.8672C53.2369 26.3451 53.5286 25.0052 54.1119 23.8477C54.6953 22.681 55.5156 21.7741 56.5729 21.127C57.6393 20.4798 58.8698 20.1562 60.2643 20.1562C61.5221 20.1562 62.6614 20.4297 63.6823 20.9766C64.7122 21.5143 65.528 22.3438 66.1295 23.4648C66.7402 24.5859 67.0455 25.9805 67.0455 27.6484V28.7422H56.6823C56.7005 29.5716 56.8645 30.2917 57.1744 30.9023C57.4934 31.5039 57.9309 31.9642 58.4869 32.2832C59.052 32.6022 59.7083 32.7617 60.4557 32.7617C61.2031 32.7617 61.8365 32.625 62.3561 32.3516C62.8756 32.069 63.2539 31.6953 63.4908 31.2305H66.9088C66.6992 32.0872 66.3027 32.8392 65.7194 33.4863C65.136 34.1243 64.3932 34.6211 63.4908 34.9766C62.5976 35.3229 61.5859 35.4961 60.4557 35.4961ZM63.7096 26.3633C63.7096 25.6979 63.5638 25.1009 63.2721 24.5723C62.9895 24.0345 62.5885 23.6152 62.069 23.3145C61.5586 23.0137 60.9752 22.8633 60.319 22.8633C59.6445 22.8633 59.0384 23.0228 58.5006 23.3418C57.9628 23.6517 57.539 24.0755 57.2291 24.6133C56.9192 25.151 56.7415 25.7344 56.6959 26.3633H63.7096ZM76.2304 35.4961C74.7538 35.4961 73.4732 35.1862 72.3886 34.5664C71.304 33.9375 70.47 33.0488 69.8867 31.9004C69.3033 30.752 69.0117 29.4076 69.0117 27.8672C69.0117 26.3451 69.3033 25.0052 69.8867 23.8477C70.47 22.681 71.2903 21.7741 72.3476 21.127C73.414 20.4798 74.6445 20.1562 76.039 20.1562C77.2968 20.1562 78.4361 20.4297 79.457 20.9766C80.4869 21.5143 81.3027 22.3438 81.9042 23.4648C82.5149 24.5859 82.8203 25.9805 82.8203 27.6484V28.7422H72.457C72.4752 29.5716 72.6393 30.2917 72.9492 30.9023C73.2682 31.5039 73.7057 31.9642 74.2617 32.2832C74.8268 32.6022 75.483 32.7617 76.2304 32.7617C76.9778 32.7617 77.6113 32.625 78.1308 32.3516C78.6503 32.069 79.0286 31.6953 79.2656 31.2305H82.6835C82.4739 32.0872 82.0774 32.8392 81.4941 33.4863C80.9107 34.1243 80.1679 34.6211 79.2656 34.9766C78.3723 35.3229 77.3606 35.4961 76.2304 35.4961ZM79.4843 26.3633C79.4843 25.6979 79.3385 25.1009 79.0468 24.5723C78.7643 24.0345 78.3632 23.6152 77.8437 23.3145C77.3333 23.0137 76.7499 22.8633 76.0937 22.8633C75.4192 22.8633 74.8131 23.0228 74.2753 23.3418C73.7376 23.6517 73.3137 24.0755 73.0038 24.6133C72.6939 25.151 72.5162 25.7344 72.4706 26.3633H79.4843ZM85.4153 20.3477H88.8059V22.8086H88.97C89.2343 21.9609 89.6946 21.3047 90.3508 20.8398C91.0071 20.3659 91.7681 20.1289 92.634 20.1289C93.0351 20.1289 93.4543 20.1562 93.8918 20.2109V23.4375C93.7369 23.3828 93.4999 23.3372 93.1809 23.3008C92.871 23.2552 92.5702 23.2279 92.2786 23.2188C91.6405 23.2188 91.0663 23.36 90.5559 23.6426C90.0455 23.916 89.6444 24.2988 89.3528 24.791C89.0611 25.2741 88.9153 25.8255 88.9153 26.4453V35.1953H85.4153V20.3477ZM111.879 20.3477H115.351V35.1953H111.988V32.5703H111.824C111.469 33.4271 110.904 34.1107 110.129 34.6211C109.363 35.1315 108.443 35.3867 107.367 35.3867C106.383 35.3867 105.517 35.168 104.769 34.7305C104.022 34.293 103.439 33.6549 103.019 32.8164C102.6 31.9779 102.391 30.9753 102.391 29.8086V20.3477H105.891V29.2617C105.891 29.8815 106.004 30.4284 106.232 30.9023C106.469 31.3672 106.797 31.7272 107.217 31.9824C107.645 32.2285 108.142 32.3516 108.707 32.3516C109.236 32.3516 109.741 32.224 110.224 31.9688C110.717 31.7044 111.113 31.3171 111.414 30.8066C111.724 30.2962 111.879 29.681 111.879 28.9609V20.3477ZM118.575 20.3477H121.993V22.7812H122.212C122.577 22.0612 123.087 21.446 123.743 20.9355C124.4 20.416 125.311 20.1562 126.478 20.1562C127.635 20.1562 128.674 20.4525 129.595 21.0449C130.525 21.6374 131.258 22.5078 131.796 23.6562C132.334 24.8047 132.603 26.181 132.603 27.7852C132.603 29.3711 132.338 30.7428 131.81 31.9004C131.281 33.0579 130.552 33.9421 129.622 34.5527C128.702 35.1543 127.654 35.4596 126.478 35.4688C125.338 35.4596 124.431 35.1999 123.757 34.6895C123.083 34.179 122.568 33.5638 122.212 32.8438H122.075V40.7734H118.575V20.3477ZM121.993 27.7578C122.002 28.724 122.144 29.5716 122.417 30.3008C122.691 31.0299 123.092 31.5951 123.62 31.9961C124.149 32.3971 124.782 32.5977 125.521 32.5977C126.268 32.5977 126.906 32.3926 127.435 31.9824C127.973 31.5723 128.374 31.0026 128.638 30.2734C128.911 29.5443 129.048 28.7057 129.048 27.7578C129.048 26.3268 128.743 25.1784 128.132 24.3125C127.53 23.4466 126.66 23.0091 125.521 23C124.4 23.0091 123.534 23.4375 122.923 24.2852C122.312 25.1328 122.002 26.2904 121.993 27.7578Z"
        fill="white" />
    <defs>
        <linearGradient id="paint0_linear_4654_7854" x1="155.99" y1="180.253" x2="175.932"
            y2="160.312" gradientUnits="userSpaceOnUse">
            <stop stopColor="#D9D9D9" stopOpacity="0" />
            <stop offset="1" stopColor="#4F4F4F" />
        </linearGradient>
        <linearGradient id="paint1_linear_4654_7854" x1="104.619" y1="180.253" x2="124.56"
            y2="160.312" gradientUnits="userSpaceOnUse">
            <stop stopColor="#D9D9D9" stopOpacity="0" />
            <stop offset="1" stopColor="#4F4F4F" />
        </linearGradient>
        <clipPath id="clip0_4654_7854">
            <rect width="226" height="245" fill="white" transform="matrix(-1 0 0 1 289 37)" />
        </clipPath>
        <clipPath id="clip1_4654_7854">
            <rect width="43.3096" height="49.3528" rx="21.6548"
                transform="matrix(-1 0 0 1 204.012 134.246)" fill="white" />
        </clipPath>
        <clipPath id="clip2_4654_7854">
            <rect width="43.3096" height="49.3528" rx="21.6548"
                transform="matrix(-1 0 0 1 152.641 134.246)" fill="white" />
        </clipPath>
    </defs>
</svg>