<svg width="263" height="284" viewBox="0 0 263 284" fill="none" xmlns="http://www.w3.org/2000/svg">
    <g clipPath="url(#clip0_4654_7853)">
        <path
            d="M60.314 204.112C68.2463 203.53 76.5502 207.275 78.2695 208.1C78.4896 208.205 78.6695 208.294 78.8873 208.404C87.3087 212.661 139.016 246.652 139.016 246.652L123.724 266.595C123.724 266.595 106.339 258.655 97.6043 255.094C91.2537 252.505 84.6369 250.157 78.0643 248.19C71.2162 246.14 63.8314 245.017 57.2888 242.258C56.4343 241.898 55.5049 241.416 54.547 240.86C47.0325 236.503 43.0132 228.467 43.8597 219.822C44.8679 209.526 51.4091 204.766 60.314 204.112Z"
            fill="#FBC74F" />
        <ellipse cx="68.6607" cy="70.0478" rx="68.6607" ry="70.0478"
            transform="matrix(-0.954554 0.298039 0.298039 0.954554 229.715 196.68)" fill="#FFE96D" />
        <path
            d="M192.005 84.3929C198.528 66.0449 188.015 46.0333 169.206 40.9933C150.203 35.9014 130.942 48.2751 127.674 67.6753L110.968 166.836L158.196 179.491L192.005 84.3929Z"
            fill="#FBC74F" />
        <path
            d="M74.5616 173.514C50.4284 216.812 88.2444 245.45 152.116 242.003C200.789 242.003 240.246 211.339 240.246 173.514C240.246 114.592 200.789 105.024 152.116 105.024C89.3992 100.922 66.742 133.404 74.5616 173.514Z"
            fill="#FFE96D" />
        <path d="M109.273 81.0142H185.009V99.0794V107.451H109.273V99.0794V81.0142Z" fill="#3A312C" />
        <path d="M109.273 81.0142H185.009V99.0794V107.451H109.273V99.0794V81.0142Z" fill="#3A312C" />
        <path
            d="M143.097 52.7176C145.259 51.9757 147.608 51.9836 149.765 52.7399L204.408 71.8992V73.2713C204.408 74.6513 203.572 75.8936 202.293 76.413L200.834 77.0058L193.063 79.8318L177.52 85.4837L149.907 95.5248C147.664 96.3405 145.205 96.3415 142.961 95.5275L90.275 76.4159C89.3807 76.0915 88.7852 75.2419 88.7852 74.2906V71.3539L143.097 52.7176Z"
            fill="#55463F" />
        <path
            d="M142.714 50.769C145.21 49.8616 147.945 49.8616 150.44 50.769L202.905 69.8472C204.89 70.5688 204.89 73.375 202.905 74.0965L150.44 93.1747C147.945 94.0822 145.21 94.0822 142.714 93.1747L90.249 74.0965C88.2648 73.375 88.2648 70.5688 90.249 69.8472L142.714 50.769Z"
            fill="#756A65" />
        <path
            d="M147.141 121.382C168.055 121.382 185.009 115.145 185.009 107.451H109.273C109.273 115.145 126.227 121.382 147.141 121.382Z"
            fill="#3A312C" />
        <path
            d="M246.271 94.4656C252.794 76.1176 242.281 56.1061 223.471 51.0661C204.468 45.9742 185.208 58.3478 181.939 77.7481L165.233 176.909L212.462 189.564L246.271 94.4656Z"
            fill="#FFE96D" />
        <g clipPath="url(#clip1_4654_7853)">
            <rect width="43.3096" height="49.3528" rx="21.6548"
                transform="matrix(-1 0 0 1 177.801 136.246)" fill="white" />
            <ellipse cx="15.6116" cy="23.6692" rx="15.6116" ry="23.6692"
                transform="matrix(-1 0 0 1 164.707 137.254)" fill="#3A312C" />
            <mask id="mask0_4654_7853" style="mask-type:alpha" maskUnits="userSpaceOnUse" x="133"
                y="137" width="32" height="48">
                <ellipse cx="15.6116" cy="23.6692" rx="15.6116" ry="23.6692"
                    transform="matrix(-1 0 0 1 164.707 137.254)" fill="black" />
            </mask>
            <g mask="url(#mask0_4654_7853)">
                <path
                    d="M164.707 177.298L134.735 147.326L114.793 167.267L144.765 197.239L164.707 177.298Z"
                    fill="url(#paint0_linear_4654_7853)" fillOpacity="0.58" />
            </g>
        </g>
        <g clipPath="url(#clip2_4654_7853)">
            <rect width="43.3096" height="49.3528" rx="21.6548"
                transform="matrix(-1 0 0 1 126.43 136.246)" fill="white" />
            <ellipse cx="15.6116" cy="23.6692" rx="15.6116" ry="23.6692"
                transform="matrix(-1 0 0 1 113.336 137.254)" fill="#3A312C" />
            <mask id="mask1_4654_7853" style="mask-type:alpha" maskUnits="userSpaceOnUse" x="82"
                y="137" width="32" height="48">
                <ellipse cx="15.6116" cy="23.6692" rx="15.6116" ry="23.6692"
                    transform="matrix(-1 0 0 1 113.336 137.254)" fill="black" />
            </mask>
            <g mask="url(#mask1_4654_7853)">
                <path
                    d="M113.336 177.298L83.3634 147.326L63.4219 167.267L93.394 197.239L113.336 177.298Z"
                    fill="url(#paint1_linear_4654_7853)" fillOpacity="0.58" />
            </g>
        </g>
        <path
            d="M107.353 189.612C106.469 198.743 115.515 205.26 126.964 204.703C137.794 204.703 146.574 197.947 146.574 189.612C146.574 181.277 137.794 176.031 126.964 176.031C116.133 176.031 107.353 181.277 107.353 189.612Z"
            fill="#FFE96D" />
        <path d="M121.395 177.848C115.855 176.841 105.884 177.748 110.315 189.431" stroke="#F6A444"
            strokeWidth="3.0216" strokeLinecap="round" />
        <path d="M156.645 203.535C156.477 206.892 153.019 212.599 140.529 208.571" stroke="#F6A444"
            strokeWidth="3.0216" strokeLinecap="round" />
        <ellipse cx="6.5468" cy="4.5324" rx="6.5468" ry="4.5324"
            transform="matrix(-1 0 0 1 125.422 180.368)" fill="#F6A444" />
        <path
            d="M211.902 186.189C221.389 191.256 228.132 201.619 229.329 203.544C229.458 203.751 229.562 203.921 229.688 204.13C235.983 214.543 270.198 290.033 270.198 290.033L238.807 301.596C238.807 301.596 224.892 280.296 217.598 270.076C212.294 262.646 206.518 255.298 200.522 248.41C194.275 241.233 186.764 234.716 181.365 226.958C180.66 225.945 179.957 224.742 179.274 223.435C173.919 213.187 175.112 201.287 182.213 192.162C190.671 181.294 201.417 180.591 211.902 186.189Z"
            fill="#FBC74F" />
        <path
            d="M174.027 84.4902L164.704 87.8491L164.704 124.999C164.704 125.339 165.149 125.468 165.33 125.18L169.155 119.105C169.266 118.929 169.507 118.893 169.664 119.029L173.466 122.328C173.686 122.519 174.027 122.363 174.027 122.072V84.4902Z"
            fill="#FFC83C" />
    </g>
    <path
        d="M54.0315 60.2774C44.8416 60.3958 41.431 53.248 40.713 48.866C40.6289 48.3527 40.9886 47.8863 41.5036 47.8131C48.2095 46.8607 59.4508 47.1626 53.4644 48.8731C51.3149 49.4873 51.9184 55.9884 54.283 59.8056C54.4077 60.0069 54.2683 60.2743 54.0315 60.2774Z"
        fill="#FF9F5A" />
    <rect y="0.234863" width="110" height="50" rx="25" fill="#FF9F5A" />
    <path
        d="M31.0938 21.7544C30.7656 20.688 30.2005 19.8586 29.3984 19.2661C28.5964 18.6646 27.6029 18.3638 26.418 18.3638C25.3516 18.3638 24.3991 18.6372 23.5605 19.1841C22.7311 19.7218 22.084 20.5148 21.6191 21.563C21.1543 22.6112 20.9219 23.8599 20.9219 25.3091C20.9219 26.7765 21.1543 28.0389 21.6191 29.0962C22.084 30.1444 22.7357 30.9419 23.5742 31.4888C24.4128 32.0356 25.388 32.3091 26.5 32.3091C27.4844 32.3091 28.3457 32.1222 29.084 31.7485C29.8314 31.3657 30.4056 30.828 30.8066 30.1353C31.2168 29.4334 31.431 28.6177 31.4492 27.688H26.8555V24.8716H34.8945V27.2505C34.8945 28.9185 34.5345 30.3768 33.8145 31.6255C33.1035 32.8742 32.1146 33.8358 30.8477 34.5103C29.5807 35.1756 28.1315 35.5083 26.5 35.5083C24.6862 35.5083 23.0866 35.0981 21.7012 34.2778C20.3158 33.4484 19.2402 32.2681 18.4746 30.7368C17.7181 29.1965 17.3398 27.3963 17.3398 25.3364C17.3398 23.2674 17.7272 21.4673 18.502 19.936C19.2858 18.3957 20.3613 17.2153 21.7285 16.395C23.1048 15.5747 24.6589 15.1646 26.3906 15.1646C27.8216 15.1646 29.1341 15.4425 30.3281 15.9985C31.5312 16.5545 32.5156 17.3338 33.2812 18.3364C34.0469 19.3299 34.5299 20.4692 34.7305 21.7544H31.0938ZM44.3255 35.5356C42.8945 35.5356 41.6413 35.2166 40.5657 34.5786C39.4993 33.9406 38.6745 33.0428 38.0911 31.8853C37.5078 30.7277 37.2161 29.3924 37.2161 27.8794C37.2161 26.3481 37.5078 25.0037 38.0911 23.8462C38.6745 22.6886 39.4993 21.7909 40.5657 21.1528C41.6413 20.5148 42.8945 20.1958 44.3255 20.1958C45.7565 20.1958 47.0097 20.5148 48.0853 21.1528C49.1608 21.7909 49.9857 22.6886 50.5599 23.8462C51.1432 25.0037 51.4349 26.3481 51.4349 27.8794C51.4349 29.3924 51.1432 30.7277 50.5599 31.8853C49.9857 33.0428 49.1608 33.9406 48.0853 34.5786C47.0097 35.2166 45.7565 35.5356 44.3255 35.5356ZM40.7435 27.8521C40.7435 28.7817 40.8756 29.6157 41.14 30.354C41.4134 31.0923 41.819 31.6756 42.3568 32.104C42.9036 32.5324 43.569 32.7466 44.3528 32.7466C45.1185 32.7466 45.7702 32.5324 46.3079 32.104C46.8457 31.6756 47.2467 31.0923 47.511 30.354C47.7845 29.6157 47.9166 28.7817 47.9075 27.8521C47.9166 26.9224 47.7845 26.0884 47.511 25.3501C47.2467 24.6118 46.8457 24.0285 46.3079 23.6001C45.7702 23.1717 45.1185 22.9575 44.3528 22.9575C43.569 22.9575 42.9036 23.1717 42.3568 23.6001C41.819 24.0285 41.4134 24.6118 41.14 25.3501C40.8756 26.0884 40.7435 26.9224 40.7435 27.8521ZM60.5104 35.5356C59.0794 35.5356 57.8261 35.2166 56.7506 34.5786C55.6842 33.9406 54.8593 33.0428 54.276 31.8853C53.6927 30.7277 53.401 29.3924 53.401 27.8794C53.401 26.3481 53.6927 25.0037 54.276 23.8462C54.8593 22.6886 55.6842 21.7909 56.7506 21.1528C57.8261 20.5148 59.0794 20.1958 60.5104 20.1958C61.9414 20.1958 63.1946 20.5148 64.2701 21.1528C65.3457 21.7909 66.1705 22.6886 66.7448 23.8462C67.3281 25.0037 67.6198 26.3481 67.6198 27.8794C67.6198 29.3924 67.3281 30.7277 66.7448 31.8853C66.1705 33.0428 65.3457 33.9406 64.2701 34.5786C63.1946 35.2166 61.9414 35.5356 60.5104 35.5356ZM56.9283 27.8521C56.9283 28.7817 57.0605 29.6157 57.3248 30.354C57.5983 31.0923 58.0039 31.6756 58.5416 32.104C59.0885 32.5324 59.7539 32.7466 60.5377 32.7466C61.3033 32.7466 61.955 32.5324 62.4928 32.104C63.0306 31.6756 63.4316 31.0923 63.6959 30.354C63.9694 29.6157 64.1015 28.7817 64.0924 27.8521C64.1015 26.9224 63.9694 26.0884 63.6959 25.3501C63.4316 24.6118 63.0306 24.0285 62.4928 23.6001C61.955 23.1717 61.3033 22.9575 60.5377 22.9575C59.7539 22.9575 59.0885 23.1717 58.5416 23.6001C58.0039 24.0285 57.5983 24.6118 57.3248 25.3501C57.0605 26.0884 56.9283 26.9224 56.9283 27.8521ZM75.7382 35.5083C74.5624 35.4992 73.5097 35.1938 72.58 34.5923C71.6594 33.9816 70.9348 33.0975 70.4062 31.9399C69.8775 30.7824 69.6132 29.4106 69.6132 27.8247C69.6132 26.2205 69.8821 24.8442 70.4199 23.6958C70.9576 22.5474 71.6913 21.6769 72.621 21.0845C73.5507 20.492 74.5989 20.1958 75.7656 20.1958C76.9231 20.1958 77.8255 20.4556 78.4726 20.9751C79.1288 21.4855 79.6393 22.1007 80.0038 22.8208H80.1406V15.438H83.6132V35.2349H80.1953V32.8833H80.0038C79.1106 34.6242 77.6887 35.4992 75.7382 35.5083ZM73.1679 27.7974C73.1679 28.7453 73.3046 29.5838 73.5781 30.313C73.8515 31.0422 74.2525 31.6118 74.7812 32.022C75.3098 32.4321 75.9479 32.6372 76.6953 32.6372C77.4335 32.6372 78.067 32.4367 78.5956 32.0356C79.1243 31.6346 79.5253 31.0695 79.7988 30.3403C80.0813 29.6112 80.2226 28.7635 80.2226 27.7974C80.2226 26.339 79.9127 25.186 79.2929 24.3384C78.6822 23.4816 77.8163 23.0487 76.6953 23.0396C75.9387 23.0396 75.2962 23.2446 74.7675 23.6548C74.2389 24.0558 73.8378 24.6164 73.5644 25.3364C73.3001 26.0474 73.1679 26.8677 73.1679 27.7974ZM90.9661 29.4106H87.8762L87.5481 15.438H91.2668L90.9661 29.4106ZM87.302 33.3208C87.302 32.9471 87.3977 32.6007 87.5891 32.2817C87.7805 31.9536 88.0403 31.6938 88.3684 31.5024C88.6965 31.311 89.052 31.2153 89.4348 31.2153C89.8085 31.2153 90.1549 31.311 90.4739 31.5024C90.802 31.6938 91.0618 31.9536 91.2532 32.2817C91.4446 32.6007 91.5403 32.9471 91.5403 33.3208C91.5403 33.7036 91.4446 34.0591 91.2532 34.3872C91.0618 34.7153 90.802 34.9751 90.4739 35.1665C90.1549 35.3579 89.8085 35.4536 89.4348 35.4536C89.052 35.4536 88.6965 35.3579 88.3684 35.1665C88.0403 34.9751 87.7805 34.7153 87.5891 34.3872C87.3977 34.0591 87.302 33.7036 87.302 33.3208Z"
        fill="white" />
    <defs>
        <linearGradient id="paint0_linear_4654_7853" x1="129.779" y1="182.253" x2="149.721"
            y2="162.312" gradientUnits="userSpaceOnUse">
            <stop stopColor="#D9D9D9" stopOpacity="0" />
            <stop offset="1" stopColor="#4F4F4F" />
        </linearGradient>
        <linearGradient id="paint1_linear_4654_7853" x1="78.408" y1="182.253" x2="98.3495"
            y2="162.312" gradientUnits="userSpaceOnUse">
            <stop stopColor="#D9D9D9" stopOpacity="0" />
            <stop offset="1" stopColor="#4F4F4F" />
        </linearGradient>
        <clipPath id="clip0_4654_7853">
            <rect width="226" height="245" fill="white" transform="matrix(-1 0 0 1 262.789 39)" />
        </clipPath>
        <clipPath id="clip1_4654_7853">
            <rect width="43.3096" height="49.3528" rx="21.6548"
                transform="matrix(-1 0 0 1 177.801 136.246)" fill="white" />
        </clipPath>
        <clipPath id="clip2_4654_7853">
            <rect width="43.3096" height="49.3528" rx="21.6548"
                transform="matrix(-1 0 0 1 126.43 136.246)" fill="white" />
        </clipPath>
    </defs>
</svg>