<svg width="226" height="245" viewBox="0 0 226 245" fill="none" xmlns="http://www.w3.org/2000/svg">
    <g clipPath="url(#clip0_4533_8150)">
        <path
            d="M23.525 165.112C31.4572 164.53 39.7611 168.275 41.4805 169.1C41.7005 169.205 41.8804 169.294 42.0982 169.404C50.5196 173.661 102.227 207.652 102.227 207.652L86.9352 227.595C86.9352 227.595 69.5498 219.655 60.8153 216.094C54.4647 213.505 47.8478 211.157 41.2752 209.19C34.4271 207.14 27.0424 206.017 20.4997 203.258C19.6452 202.898 18.7159 202.416 17.7579 201.86C10.2434 197.503 6.22412 189.467 7.07065 180.822C8.07886 170.526 14.62 165.766 23.525 165.112Z"
            fill="#FBC74F" />
        <ellipse cx="68.6607" cy="70.0478" rx="68.6607" ry="70.0478"
            transform="matrix(-0.954554 0.298039 0.298039 0.954554 192.926 157.68)" fill="#FFE96D" />
        <path
            d="M155.216 45.3929C161.739 27.0449 151.226 7.03333 132.417 1.99333C113.414 -3.09858 94.1532 9.27508 90.8848 28.6753L74.1787 127.836L121.407 140.491L155.216 45.3929Z"
            fill="#FBC74F" />
        <path
            d="M37.7726 134.514C13.6394 177.812 51.4554 206.45 115.327 203.003C164 203.003 203.457 172.339 203.457 134.514C203.457 75.5924 164 66.0241 115.327 66.0241C52.6101 61.9217 29.953 94.4039 37.7726 134.514Z"
            fill="#FFE96D" />
        <path d="M72.4844 42.0146H148.22V60.0799V68.4516H72.4844V60.0799V42.0146Z" fill="#3A312C" />
        <path d="M72.4844 42.0146H148.22V60.0799V68.4516H72.4844V60.0799V42.0146Z" fill="#3A312C" />
        <path
            d="M106.308 13.7176C108.47 12.9757 110.819 12.9836 112.976 13.7399L167.619 32.8992V34.2713C167.619 35.6513 166.783 36.8936 165.504 37.413L164.045 38.0058L156.274 40.8318L140.731 46.4837L113.118 56.5248C110.875 57.3405 108.416 57.3415 106.172 56.5275L53.4859 37.4159C52.5916 37.0915 51.9961 36.2419 51.9961 35.2906V32.3539L106.308 13.7176Z"
            fill="#55463F" />
        <path
            d="M105.925 11.769C108.421 10.8616 111.156 10.8616 113.651 11.769L166.116 30.8472C168.1 31.5688 168.1 34.375 166.116 35.0965L113.651 54.1747C111.156 55.0822 108.421 55.0822 105.925 54.1747L53.46 35.0965C51.4758 34.375 51.4758 31.5688 53.46 30.8472L105.925 11.769Z"
            fill="#756A65" />
        <path
            d="M110.352 82.3822C131.266 82.3822 148.22 76.1451 148.22 68.4512H72.4844C72.4844 76.1451 89.4383 82.3822 110.352 82.3822Z"
            fill="#3A312C" />
        <path
            d="M209.482 55.4651C216.005 37.1171 205.492 17.1056 186.682 12.0656C167.679 6.97368 148.419 19.3473 145.15 38.7476L128.444 137.908L175.673 150.563L209.482 55.4651Z"
            fill="#FFE96D" />
        <g clipPath="url(#clip1_4533_8150)">
            <rect width="43.3096" height="49.3528" rx="21.6548"
                transform="matrix(-1 0 0 1 141.012 97.2461)" fill="white" />
            <ellipse cx="15.6116" cy="23.6692" rx="15.6116" ry="23.6692"
                transform="matrix(-1 0 0 1 127.918 98.2539)" fill="#3A312C" />
            <mask id="mask0_4533_8150" style="mask-type:alpha" maskUnits="userSpaceOnUse" x="96"
                y="98" width="32" height="48">
                <ellipse cx="15.6116" cy="23.6692" rx="15.6116" ry="23.6692"
                    transform="matrix(-1 0 0 1 127.918 98.2539)" fill="black" />
            </mask>
            <g mask="url(#mask0_4533_8150)">
                <path
                    d="M127.918 138.297L97.9455 108.325L78.0039 128.267L107.976 158.239L127.918 138.297Z"
                    fill="url(#paint0_linear_4533_8150)" fillOpacity="0.58" />
            </g>
        </g>
        <g clipPath="url(#clip2_4533_8150)">
            <rect width="43.3096" height="49.3528" rx="21.6548"
                transform="matrix(-1 0 0 1 89.6406 97.2461)" fill="white" />
            <ellipse cx="15.6116" cy="23.6692" rx="15.6116" ry="23.6692"
                transform="matrix(-1 0 0 1 76.5469 98.2539)" fill="#3A312C" />
            <mask id="mask1_4533_8150" style="mask-type:alpha" maskUnits="userSpaceOnUse" x="45"
                y="98" width="32" height="48">
                <ellipse cx="15.6116" cy="23.6692" rx="15.6116" ry="23.6692"
                    transform="matrix(-1 0 0 1 76.5469 98.2539)" fill="black" />
            </mask>
            <g mask="url(#mask1_4533_8150)">
                <path
                    d="M76.5465 138.297L46.5744 108.325L26.6328 128.267L56.605 158.239L76.5465 138.297Z"
                    fill="url(#paint1_linear_4533_8150)" fillOpacity="0.58" />
            </g>
        </g>
        <path
            d="M70.5641 150.612C69.6799 159.743 78.7255 166.26 90.1746 165.703C101.005 165.703 109.785 158.947 109.785 150.612C109.785 142.277 101.005 137.031 90.1746 137.031C79.344 137.031 70.5641 142.277 70.5641 150.612Z"
            fill="#FFE96D" />
        <path d="M84.6055 138.849C79.0659 137.842 69.0946 138.749 73.5263 150.432" stroke="#F6A444"
            strokeWidth="3.0216" strokeLinecap="round" />
        <path d="M119.855 164.535C119.688 167.892 116.23 173.6 103.74 169.571" stroke="#F6A444"
            strokeWidth="3.0216" strokeLinecap="round" />
        <ellipse cx="6.5468" cy="4.5324" rx="6.5468" ry="4.5324"
            transform="matrix(-1 0 0 1 88.6328 141.368)" fill="#F6A444" />
        <path
            d="M175.112 147.189C184.6 152.255 191.343 162.619 192.54 164.544C192.668 164.751 192.773 164.921 192.899 165.13C199.194 175.542 233.409 251.033 233.409 251.033L202.017 262.595C202.017 262.595 188.103 241.296 180.808 231.076C175.505 223.646 169.729 216.298 163.733 209.409C157.485 202.232 149.975 195.716 144.576 187.958C143.871 186.945 143.168 185.741 142.485 184.435C137.13 174.187 138.323 162.287 145.424 153.161C153.882 142.293 164.628 141.59 175.112 147.189Z"
            fill="#FBC74F" />
        <path
            d="M137.238 45.4902L127.915 48.8491L127.915 85.9992C127.915 86.3393 128.36 86.4677 128.541 86.1798L132.366 80.1047C132.477 79.9288 132.718 79.893 132.875 80.0292L136.677 83.3283C136.896 83.5188 137.238 83.3628 137.238 83.0721V45.4902Z"
            fill="#FFC83C" />
    </g>
    <defs>
        <linearGradient id="paint0_linear_4533_8150" x1="92.99" y1="143.253" x2="112.932"
            y2="123.311" gradientUnits="userSpaceOnUse">
            <stop stopColor="#D9D9D9" stopOpacity="0" />
            <stop offset="1" stopColor="#4F4F4F" />
        </linearGradient>
        <linearGradient id="paint1_linear_4533_8150" x1="41.6189" y1="143.253" x2="61.5604"
            y2="123.311" gradientUnits="userSpaceOnUse">
            <stop stopColor="#D9D9D9" stopOpacity="0" />
            <stop offset="1" stopColor="#4F4F4F" />
        </linearGradient>
        <clipPath id="clip0_4533_8150">
            <rect width="226" height="245" fill="white" transform="matrix(-1 0 0 1 226 0)" />
        </clipPath>
        <clipPath id="clip1_4533_8150">
            <rect width="43.3096" height="49.3528" rx="21.6548"
                transform="matrix(-1 0 0 1 141.012 97.2461)" fill="white" />
        </clipPath>
        <clipPath id="clip2_4533_8150">
            <rect width="43.3096" height="49.3528" rx="21.6548"
                transform="matrix(-1 0 0 1 89.6406 97.2461)" fill="white" />
        </clipPath>
    </defs>
</svg>