<svg width="232" height="188" viewBox="0 0 232 188" fill="none" xmlns="http://www.w3.org/2000/svg">
    <path d="M19.9204 205.46L0 176.825H287.186V205.46H19.9204Z"
        fill="url(#paint0_linear_6707_14448)" />
    <rect y="32.0781" width="255.681" height="145.161" fill="url(#paint1_linear_6707_14448)" />
    <rect y="43.0674" width="255.681" height="121.8" fill="#FF7373" />
    <rect x="18.5312" y="148.844" width="43.313" height="16.0232" fill="#DE5959" />
    <rect x="18.5312" y="148.844" width="43.313" height="16.0232" fill="#DE5959" />
    <rect x="18.5312" y="143.226" width="43.313" height="5.61841" fill="#DE5959" />
    <rect x="18.5312" y="143.226" width="43.313" height="5.61841" fill="#FFABAB" />
    <rect x="35.5" y="137.607" width="9.37939" height="5.61841" fill="#DE5959" />
    <rect x="35.5" y="137.607" width="9.37939" height="5.61841" fill="#FFABAB" />
    <rect x="68.3906" y="159.249" width="30.0132" height="5.61841" fill="#DE5959" />
    <rect x="68.3906" y="159.249" width="30.0132" height="5.61841" fill="#FFABAB" />
    <rect x="133.332" y="133.256" width="30.0132" height="5.61841"
        transform="rotate(-39.2492 133.332 133.256)" fill="#DE5959" />
    <rect x="133.332" y="133.256" width="30.0132" height="5.61841"
        transform="rotate(-39.2492 133.332 133.256)" fill="#FFABAB" />
    <path
        d="M182.547 44.9595L174.731 47.7752L174.731 78.9182C174.731 79.2034 175.104 79.311 175.256 79.0697L178.462 73.9769C178.555 73.8294 178.758 73.7994 178.889 73.9136L182.076 76.6792C182.26 76.8389 182.547 76.7082 182.547 76.4645V44.9595Z"
        fill="#FFC83C" />
    <rect x="78.7715" y="57.3345" width="14.7587" height="2.7628"
        transform="rotate(15.2886 78.7715 57.3345)" fill="#DE5959" />
    <rect x="78.7715" y="57.3345" width="14.7587" height="2.7628"
        transform="rotate(15.2886 78.7715 57.3345)" fill="#FF8C8C" />
    <rect x="71.2891" y="114.57" width="14.7587" height="2.7628"
        transform="rotate(15.2886 71.2891 114.57)" fill="#DE5959" />
    <rect x="71.2891" y="114.57" width="14.7587" height="2.7628"
        transform="rotate(15.2886 71.2891 114.57)" fill="#FF8C8C" />
    <rect x="81.2891" y="111.078" width="2.65099" height="2.7628"
        transform="rotate(105 81.2891 111.078)" fill="#DE5959" />
    <rect x="81.2891" y="111.078" width="2.65099" height="2.7628"
        transform="rotate(105 81.2891 111.078)" fill="#FF8C8C" />
    <rect x="78.043" y="122.966" width="2.65099" height="2.7628"
        transform="rotate(105 78.043 122.966)" fill="#DE5959" />
    <rect x="78.043" y="122.966" width="2.65099" height="2.7628"
        transform="rotate(105 78.043 122.966)" fill="#FF8C8C" />
    <path
        d="M82.2282 160.543C88.8778 160.056 95.839 163.195 97.2804 163.886C97.4648 163.975 97.6156 164.049 97.7982 164.141C104.858 167.71 148.204 196.204 148.204 196.204L135.385 212.923C135.385 212.923 120.811 206.267 113.489 203.281C108.165 201.111 102.618 199.143 97.1083 197.494C91.3675 195.776 85.1768 194.834 79.6921 192.521C78.9758 192.219 78.1967 191.815 77.3937 191.349C71.0943 187.697 67.7248 180.96 68.4345 173.713C69.2797 165.082 74.7632 161.091 82.2282 160.543Z"
        fill="#FBC74F" />
    <ellipse cx="57.5585" cy="58.7213" rx="57.5585" ry="58.7213"
        transform="matrix(-0.788502 0.615033 0.615033 0.788502 222.26 97.8091)"
        fill="url(#paint2_linear_6707_14448)" />
    <path
        d="M197.619 26.0492C203.087 10.668 194.274 -6.10776 178.506 -10.3328V-10.3328C162.575 -14.6014 146.429 -4.2285 143.689 12.0348L129.685 95.1616L169.277 105.77L197.619 26.0492Z"
        fill="#FBC74F" />
    <path
        d="M99.1628 100.759C78.9318 137.056 110.633 161.064 164.177 158.174C204.98 158.174 238.057 132.468 238.057 100.759C238.057 51.3651 204.98 43.344 164.177 43.344C111.601 39.9049 92.6076 67.1348 99.1628 100.759Z"
        fill="#FFE96D" />
    <path d="M128.262 23.2163H191.751V38.3605V45.3785H128.262V38.3605V23.2163Z" fill="#3A312C" />
    <path d="M128.262 23.2163H191.751V38.3605V45.3785H128.262V38.3605V23.2163Z" fill="#3A312C" />
    <path
        d="M156.614 -0.504689C158.426 -1.12661 160.395 -1.12003 162.203 -0.486008L208.011 15.5753V16.7255C208.011 17.8824 207.31 18.9238 206.238 19.3593L205.015 19.8562L198.5 22.2252L185.471 26.9632L162.323 35.3807C160.442 36.0645 158.381 36.0653 156.5 35.383L112.333 19.3616C111.583 19.0897 111.084 18.3775 111.084 17.58V15.1182L156.614 -0.504689Z"
        fill="#55463F" />
    <path
        d="M156.294 -2.13882C158.386 -2.89951 160.679 -2.89951 162.771 -2.13882L206.752 13.8545C208.416 14.4594 208.416 16.8119 206.752 17.4167L162.771 33.4101C160.679 34.1708 158.386 34.1708 156.294 33.4101L112.312 17.4167C110.649 16.8119 110.649 14.4594 112.312 13.8545L156.294 -2.13882Z"
        fill="#756A65" />
    <path
        d="M160.006 57.0574C177.538 57.0574 191.751 51.8287 191.751 45.3789H128.262C128.262 51.8287 142.474 57.0574 160.006 57.0574Z"
        fill="#3A312C" />
    <path
        d="M243.107 34.4925C248.575 19.1113 239.762 2.3356 223.994 -1.88944V-1.88944C208.064 -6.15801 191.918 4.21486 189.178 20.4782L175.173 103.605L214.765 114.214L243.107 34.4925Z"
        fill="url(#paint3_linear_6707_14448)" />
    <g clipPath="url(#clip0_6707_14448)">
        <rect width="36.3066" height="41.3726" rx="18.1533"
            transform="matrix(-1 0 0 1 185.707 69.5176)" fill="white" />
        <ellipse cx="13.0873" cy="19.842" rx="13.0873" ry="19.842"
            transform="matrix(-1 0 0 1 174.73 70.3623)" fill="#3A312C" />
        <mask id="mask0_6707_14448" style="mask-type:alpha" maskUnits="userSpaceOnUse" x="148"
            y="70" width="27" height="41">
            <ellipse cx="13.0873" cy="19.842" rx="13.0873" ry="19.842"
                transform="matrix(-1 0 0 1 174.73 70.3623)" fill="black" />
        </mask>
        <g mask="url(#mask0_6707_14448)">
            <path
                d="M174.732 103.932L149.606 78.8059L132.889 95.5229L158.014 120.649L174.732 103.932Z"
                fill="url(#paint4_linear_6707_14448)" fillOpacity="0.58" />
        </g>
    </g>
    <g clipPath="url(#clip1_6707_14448)">
        <rect width="36.3066" height="41.3726" rx="18.1533"
            transform="matrix(-1 0 0 1 142.646 69.5176)" fill="white" />
        <ellipse cx="13.0873" cy="19.842" rx="13.0873" ry="19.842"
            transform="matrix(-1 0 0 1 131.67 70.3623)" fill="#3A312C" />
        <mask id="mask1_6707_14448" style="mask-type:alpha" maskUnits="userSpaceOnUse" x="105"
            y="70" width="27" height="41">
            <ellipse cx="13.0873" cy="19.842" rx="13.0873" ry="19.842"
                transform="matrix(-1 0 0 1 131.67 70.3623)" fill="black" />
        </mask>
        <g mask="url(#mask1_6707_14448)">
            <path
                d="M131.669 103.932L106.543 78.8059L89.8262 95.5229L114.952 120.649L131.669 103.932Z"
                fill="url(#paint5_linear_6707_14448)" fillOpacity="0.58" />
        </g>
    </g>
    <path
        d="M126.654 114.255C125.913 121.909 133.496 127.373 143.094 126.906C152.173 126.906 159.533 121.242 159.533 114.255C159.533 107.268 152.173 102.87 143.094 102.87C134.014 102.87 126.654 107.268 126.654 114.255Z"
        fill="#FFE96D" />
    <path d="M138.424 104.393C133.78 103.549 125.421 104.309 129.136 114.103" stroke="#F6A444"
        strokeWidth="2.53302" strokeLinecap="round" />
    <path d="M167.977 125.924C167.836 128.739 164.937 133.523 154.467 130.146" stroke="#F6A444"
        strokeWidth="2.53302" strokeLinecap="round" />
    <ellipse cx="5.48821" cy="3.79953" rx="5.48821" ry="3.79953"
        transform="matrix(-1 0 0 1 141.803 106.504)" fill="#F6A444" />
    <path fillRule="evenodd" clipRule="evenodd"
        d="M141.801 141.267C142.335 141.52 142.956 141.52 143.49 141.267C159.654 133.6 178.2 132.959 194.762 139.344C198.806 140.903 201.198 144.958 201.198 149.292V207.105C201.198 211.189 197.017 213.979 193.09 212.859C184.052 210.282 174.478 209.42 165.053 210.183C152.854 211.17 141.988 217.575 132.316 225.072V225.072C130.252 226.672 127.251 225.201 127.251 222.59V215.363C127.251 213.166 125.707 211.257 123.539 210.903C112.66 209.128 103.191 209.725 92.2014 212.859C88.2744 213.979 84.0938 211.189 84.0938 207.105V149.292C84.0938 144.958 86.485 140.903 90.5295 139.344C107.092 132.959 125.637 133.6 141.801 141.267Z"
        fill="white" />
    <path
        d="M143.867 145.494C159.926 138.242 178.351 137.635 194.805 143.675C198.823 145.15 201.199 148.986 201.199 153.086V207.777C201.199 211.64 197.046 214.28 193.144 213.221C178.292 209.187 158.557 211.803 143.867 216.261V145.494Z"
        fill="#70BAE4" />
    <path
        d="M139.021 145.542C124.498 138.289 107.835 137.683 92.9537 143.722C89.3197 145.197 87.1711 149.033 87.1711 153.134V207.825C87.1711 211.688 90.9274 214.327 94.4559 213.268C107.888 209.235 125.736 211.851 139.021 216.308V145.542Z"
        fill="#7FC1E5" />
    <rect x="139.021" y="145.522" width="4.84521" height="63.889" fill="#92D8FF" />
    <path
        d="M203.561 157.466C212.553 156.806 221.973 161.129 223.683 161.957C223.867 162.046 224.017 162.12 224.2 162.211C233.325 166.77 291.385 204.936 291.385 204.936L274.32 227.19C274.32 227.19 254.92 218.33 245.173 214.356C238.086 211.467 230.703 208.847 223.368 206.652C215.726 204.365 207.486 203.112 200.185 200.033C199.231 199.631 198.194 199.093 197.125 198.473C188.74 193.611 184.255 184.644 185.199 174.996C186.324 163.507 193.624 158.195 203.561 157.466Z"
        fill="#FFF09D" />
    <rect x="20.5078" y="110.576" width="14.7587" height="2.7628"
        transform="rotate(45 20.5078 110.576)" fill="#DE5959" />
    <rect x="20.5078" y="110.576" width="14.7587" height="2.7628"
        transform="rotate(45 20.5078 110.576)" fill="#FF8C8C" />
    <rect x="18.5312" y="120.981" width="14.7587" height="2.7628"
        transform="rotate(-44.7114 18.5312 120.981)" fill="#DE5959" />
    <rect x="18.5312" y="120.981" width="14.7587" height="2.7628"
        transform="rotate(-44.7114 18.5312 120.981)" fill="#FF8C8C" />
    <defs>
        <linearGradient id="paint0_linear_6707_14448" x1="143.593" y1="176.825" x2="143.593"
            y2="205.46" gradientUnits="userSpaceOnUse">
            <stop stopColor="#DE5959" />
            <stop offset="1" stopColor="#DE5959" stopOpacity="0" />
        </linearGradient>
        <linearGradient id="paint1_linear_6707_14448" x1="127.841" y1="32.0781" x2="127.841"
            y2="177.239" gradientUnits="userSpaceOnUse">
            <stop stopColor="#FC5A5A" />
            <stop offset="1" stopColor="#ED6262" stopOpacity="0" />
        </linearGradient>
        <linearGradient id="paint2_linear_6707_14448" x1="57.5585" y1="0" x2="57.5585" y2="117.443"
            gradientUnits="userSpaceOnUse">
            <stop stopColor="#F9CC59" />
            <stop offset="0.36" stopColor="#FFE96D" />
        </linearGradient>
        <linearGradient id="paint3_linear_6707_14448" x1="223.771" y1="-1.94936" x2="194.127"
            y2="108.684" gradientUnits="userSpaceOnUse">
            <stop stopColor="#FFCE4F" />
            <stop offset="0.543285" stopColor="#FFE96D" />
        </linearGradient>
        <linearGradient id="paint4_linear_6707_14448" x1="145.452" y1="108.086" x2="162.169"
            y2="91.3688" gradientUnits="userSpaceOnUse">
            <stop stopColor="#D9D9D9" stop-opacity="0" />
            <stop offset="1" stopColor="#4F4F4F" />
        </linearGradient>
        <linearGradient id="paint5_linear_6707_14448" x1="102.389" y1="108.086" x2="119.106"
            y2="91.3688" gradientUnits="userSpaceOnUse">
            <stop stopColor="#D9D9D9" stopOpacity="0" />
            <stop offset="1" stopColor="#4F4F4F" />
        </linearGradient>
        <clipPath id="clip0_6707_14448">
            <rect width="36.3066" height="41.3726" rx="18.1533"
                transform="matrix(-1 0 0 1 185.707 69.5176)" fill="white" />
        </clipPath>
        <clipPath id="clip1_6707_14448">
            <rect width="36.3066" height="41.3726" rx="18.1533"
                transform="matrix(-1 0 0 1 142.646 69.5176)" fill="white" />
        </clipPath>
    </defs>
</svg>