<svg width="175" height="188" viewBox="0 0 175 188" fill="none" xmlns="http://www.w3.org/2000/svg">
    <ellipse cx="81.5078" cy="98.5088" rx="31.5" ry="38.5" fill="#95DE4B" />
    <ellipse cx="151.508" cy="152.009" rx="22" ry="34.5" transform="rotate(90 151.508 152.009)"
        fill="#95DE4B" />
    <ellipse cx="150.008" cy="189.009" rx="37" ry="58" transform="rotate(90 150.008 189.009)"
        fill="#95DE4B" />
    <path
        d="M63.2809 163.929C69.9306 163.441 76.8917 166.58 78.3331 167.272C78.5176 167.361 78.6684 167.434 78.8509 167.527C85.9106 171.096 129.257 199.59 129.257 199.59L116.438 216.309C116.438 216.309 101.864 209.652 94.5415 206.667C89.2178 204.497 83.6709 202.529 78.1611 200.88C72.4203 199.162 66.2296 198.22 60.7449 195.907C60.0285 195.605 59.2495 195.201 58.4464 194.735C52.147 191.082 48.7776 184.346 49.4872 177.099C50.3324 168.467 55.8159 164.477 63.2809 163.929Z"
        fill="#FBC74F" />
    <path
        d="M123.86 206.275C121.964 152.307 162.042 133.074 182.318 130.203L191.581 170.03C149.238 179.216 146.769 188.573 149.139 206.275H123.86Z"
        fill="#393939" />
    <path
        d="M56.2494 198.678C59.0671 168.039 81.0073 159.721 91.6252 159.391L97.3117 166.691C74.9139 169.184 69.262 190.13 69.2358 200.292L56.2494 198.678Z"
        fill="#393939" />
    <ellipse cx="57.5585" cy="58.7213" rx="57.5585" ry="58.7213"
        transform="matrix(-0.954554 0.298039 0.298039 0.954554 162.703 130.009)" fill="#FFE96D" />
    <path
        d="M131.093 35.8783C136.561 20.4971 127.749 3.72134 111.98 -0.503701V-0.503701C96.05 -4.77227 79.904 5.60061 77.164 21.8639L63.1593 104.991L102.751 115.599L131.093 35.8783Z"
        fill="#FBC74F" />
    <path
        d="M32.6374 110.589C12.4064 146.885 44.1077 170.893 97.6515 168.004C138.454 168.004 171.531 142.298 171.531 110.589C171.531 61.1947 138.454 53.1735 97.6515 53.1735C45.0757 49.7345 26.0822 76.9644 32.6374 110.589Z"
        fill="#FFE96D" />
    <path
        d="M176.581 44.3221C182.05 28.9409 173.237 12.1652 157.469 7.94015V7.94015C141.538 3.67158 125.392 14.0445 122.652 30.3077L108.648 113.435L148.24 124.043L176.581 44.3221Z"
        fill="#FFE96D" />
    <g clipPath="url(#clip0_3701_14828)">
        <rect width="36.3066" height="41.3726" rx="18.1533"
            transform="matrix(-1 0 0 1 119.182 79.3472)" fill="white" />
        <ellipse cx="13.0873" cy="19.842" rx="13.0873" ry="19.842"
            transform="matrix(-1 0 0 1 108.205 80.1919)" fill="#3A312C" />
        <mask id="mask0_3701_14828" style="mask-type:alpha" maskUnits="userSpaceOnUse" x="82" y="80"
            width="27" height="40">
            <ellipse cx="13.0873" cy="19.842" rx="13.0873" ry="19.842"
                transform="matrix(-1 0 0 1 108.205 80.1919)" fill="black" />
        </mask>
        <g mask="url(#mask0_3701_14828)">
            <path
                d="M108.206 113.761L83.0804 88.6355L66.3633 105.353L91.489 130.478L108.206 113.761Z"
                fill="url(#paint0_linear_3701_14828)" fillOpacity="0.58" />
        </g>
    </g>
    <g clipPath="url(#clip1_3701_14828)">
        <rect width="36.3066" height="41.3726" rx="18.1533"
            transform="matrix(-1 0 0 1 76.1211 79.3472)" fill="white" />
        <ellipse cx="13.0873" cy="19.842" rx="13.0873" ry="19.842"
            transform="matrix(-1 0 0 1 65.1445 80.1919)" fill="#3A312C" />
        <mask id="mask1_3701_14828" style="mask-type:alpha" maskUnits="userSpaceOnUse" x="38" y="80"
            width="28" height="40">
            <ellipse cx="13.0873" cy="19.842" rx="13.0873" ry="19.842"
                transform="matrix(-1 0 0 1 65.1445 80.1919)" fill="black" />
        </mask>
        <g mask="url(#mask1_3701_14828)">
            <path
                d="M65.1436 113.761L40.0179 88.6355L23.3008 105.353L48.4265 130.478L65.1436 113.761Z"
                fill="url(#paint1_linear_3701_14828)" fillOpacity="0.58" />
        </g>
    </g>
    <path
        d="M60.1286 124.084C59.3874 131.738 66.9704 137.202 76.5682 136.735C85.6476 136.735 93.0078 131.071 93.0078 124.084C93.0078 117.097 85.6476 112.699 76.5682 112.699C67.4889 112.699 60.1286 117.097 60.1286 124.084Z"
        fill="#FFE96D" />
    <path d="M71.8984 114.223C67.2546 113.378 58.8956 114.138 62.6107 123.933" stroke="#F6A444"
        strokeWidth="2.53302" strokeLinecap="round" />
    <path d="M101.451 135.754C101.31 138.569 98.4115 143.353 87.9417 139.976" stroke="#F6A444"
        strokeWidth="2.53302" strokeLinecap="round" />
    <ellipse cx="5.48821" cy="3.79953" rx="5.48821" ry="3.79953"
        transform="matrix(-1 0 0 1 75.2773 116.334)" fill="#F6A444" />
    <path
        d="M122.571 192.767C121.589 162.014 142.337 151.054 152.833 149.418L159.376 155.961C137.456 161.196 134.43 182.679 135.657 192.767H122.571Z"
        fill="#393939" />
    <path
        d="M153.203 153.609C162.196 152.95 171.616 157.273 173.326 158.101C173.51 158.19 173.66 158.263 173.843 158.355C182.968 162.913 241.027 201.079 241.027 201.079L223.963 223.334C223.963 223.334 204.562 214.474 194.816 210.5C187.729 207.611 180.345 204.991 173.011 202.796C165.369 200.509 157.128 199.255 149.827 196.177C148.874 195.774 147.837 195.236 146.768 194.617C138.382 189.754 133.897 180.787 134.842 171.14C135.967 159.65 143.266 154.339 153.203 153.609Z"
        fill="#FBC74F" />
    <defs>
        <linearGradient id="paint0_linear_3701_14828" x1="78.9262" y1="117.915" x2="95.6432"
            y2="101.198" gradientUnits="userSpaceOnUse">
            <stop stopColor="#D9D9D9" stopOpacity="0" />
            <stop offset="1" stopColor="#4F4F4F" />
        </linearGradient>
        <linearGradient id="paint1_linear_3701_14828" x1="35.8637" y1="117.915" x2="52.5807"
            y2="101.198" gradientUnits="userSpaceOnUse">
            <stop stopColor="#D9D9D9" stopOpacity="0" />
            <stop offset="1" stopColor="#4F4F4F" />
        </linearGradient>
        <clipPath id="clip0_3701_14828">
            <rect width="36.3066" height="41.3726" rx="18.1533"
                transform="matrix(-1 0 0 1 119.182 79.3472)" fill="white" />
        </clipPath>
        <clipPath id="clip1_3701_14828">
            <rect width="36.3066" height="41.3726" rx="18.1533"
                transform="matrix(-1 0 0 1 76.1211 79.3472)" fill="white" />
        </clipPath>
    </defs>
</svg>