<svg xmlns="http://www.w3.org/2000/svg" width="16" height="17" viewBox="0 0 16 17" fill="none">
    <path
        d="M10.0015 5.06209C10.0015 5.06209 10.7629 4.68701 8.00109 4.68701C7.01197 4.68701 6.04506 4.98032 5.22263 5.52985C4.40021 6.07937 3.75921 6.86044 3.38069 7.77427C3.00217 8.6881 2.90313 9.69365 3.0961 10.6638C3.28906 11.6339 3.76537 12.525 4.46479 13.2244C5.1642 13.9238 6.05531 14.4001 7.02543 14.5931C7.99554 14.7861 9.00109 14.687 9.91492 14.3085C10.8288 13.93 11.6098 13.289 12.1593 12.4666C12.7089 11.6441 13.0022 10.6772 13.0022 9.6881"
        stroke="#5C5D61" strokeWidth="1.5" strokeMiterlimit="10" strokeLinecap="round" />
    <path d="M8.00391 2.31201L10.5048 4.81291L8.00391 7.31382" stroke="#5C5D61" strokeWidth="1.5"
        strokeLinecap="round" strokeLinejoin="round" />
</svg>