<svg xmlns="http://www.w3.org/2000/svg" width="16" height="17" viewBox="0 0 16 17" fill="none">
    <path
        d="M7.08699 3.30997C7.37436 2.42551 8.62564 2.42551 8.91301 3.30997L9.58058 5.36452C9.7091 5.76006 10.0777 6.02786 10.4936 6.02786H12.6539C13.5839 6.02786 13.9705 7.2179 13.2181 7.76452L11.4704 9.0343C11.134 9.27876 10.9932 9.71207 11.1217 10.1076L11.7893 12.1622C12.0766 13.0466 11.0643 13.7821 10.312 13.2355L8.56427 11.9657C8.22781 11.7212 7.77219 11.7212 7.43573 11.9657L5.68802 13.2355C4.93565 13.7821 3.92335 13.0466 4.21073 12.1622L4.8783 10.1076C5.00682 9.71207 4.86602 9.27876 4.52956 9.0343L2.78185 7.76452C2.02948 7.21789 2.41615 6.02786 3.34612 6.02786H5.50641C5.92231 6.02786 6.2909 5.76006 6.41942 5.36452L7.08699 3.30997Z"
        fill="current" />
</svg>