<svg xmlns="http://www.w3.org/2000/svg" width="133" height="102" viewBox="0 0 133 102" fill="none">
    <path
        d="M52.771 78.3356L52.811 76.4356L52.7711 78.3356C52.8367 78.337 52.898 78.3689 52.9368 78.4218L54.469 77.2974L52.9368 78.4218L67.2804 97.9665C68.7627 99.9863 71.713 100.169 73.4327 98.3465L83.8713 87.2864C83.9365 87.2173 84.0398 87.2002 84.1237 87.2447L107.125 99.4206C110.33 101.117 113.963 98.0291 112.804 94.593L108.013 80.3802C107.966 80.2398 108.074 80.0955 108.222 80.1017L126.86 80.8806C130.729 81.0423 132.559 76.1696 129.54 73.7441L111.694 59.4089C111.595 59.3295 111.588 59.1813 111.679 59.0929L121.307 49.7327C123.534 47.5672 122.561 43.8007 119.564 42.9848L93.856 35.9875C93.7859 35.9684 93.7305 35.9147 93.7094 35.8452L87.9867 17.009C87.3324 14.8556 85.0351 13.6615 82.8967 14.3633L64.192 20.502C64.123 20.5246 64.0472 20.5102 63.9913 20.4638L43.4937 3.4434C41.1036 1.45876 37.4618 2.82659 36.9693 5.89394L34.8401 19.152C34.82 19.2772 34.6948 19.3566 34.5729 19.3213L12.5865 12.9515C8.86647 11.8738 5.92971 16.1712 8.28544 19.2455L19.6314 34.0521C19.7215 34.1697 19.6656 34.3412 19.5235 34.3831L5.13802 38.6278C1.66018 39.654 1.2199 44.4012 4.44971 46.0495L27.6311 57.8797C27.7157 57.9229 27.7611 58.0172 27.742 58.1102L24.6874 73.0086C24.1841 75.4629 26.0285 77.7729 28.5333 77.8256L52.771 78.3356Z"
        fill="current" stroke="white" strokeWidth="3.80094" />
</svg>