<svg width="169" height="143" viewBox="0 0 169 143" fill="none" xmlns="http://www.w3.org/2000/svg">
    <g filter="url(#filter0_d_4402_8404)">
        <path
            d="M70.771 97.3356L70.811 95.4356L70.7711 97.3356C70.8367 97.337 70.898 97.3689 70.9368 97.4218L72.469 96.2974L70.9368 97.4218L85.2804 116.966C86.7627 118.986 89.713 119.169 91.4327 117.347L101.871 106.286C101.937 106.217 102.04 106.2 102.124 106.245L125.125 118.421C128.33 120.117 131.963 117.029 130.804 113.593L126.013 99.3802C125.966 99.2398 126.074 99.0955 126.222 99.1017L144.86 99.8806C148.729 100.042 150.559 95.1696 147.54 92.7441L129.694 78.4089C129.595 78.3295 129.588 78.1813 129.679 78.0929L139.307 68.7327C141.534 66.5672 140.561 62.8007 137.564 61.9848L111.856 54.9875C111.786 54.9684 111.731 54.9147 111.709 54.8452L105.987 36.009C105.332 33.8556 103.035 32.6615 100.897 33.3633L82.192 39.502C82.123 39.5246 82.0472 39.5102 81.9913 39.4638L61.4937 22.4434C59.1036 20.4588 55.4618 21.8266 54.9693 24.8939L52.8401 38.152C52.82 38.2772 52.6948 38.3566 52.5729 38.3213L30.5865 31.9515C26.8665 30.8738 23.9297 35.1712 26.2854 38.2455L37.6314 53.0521C37.7215 53.1697 37.6656 53.3412 37.5235 53.3831L23.138 57.6278C19.6602 58.654 19.2199 63.4012 22.4497 65.0495L45.6311 76.8797C45.7157 76.9229 45.7611 77.0172 45.742 77.1102L42.6874 92.0086C42.1841 94.4629 44.0285 96.7729 46.5333 96.8256L70.771 97.3356Z"
            fill="current" stroke="white" strokeWidth="3.80094" />
    </g>
    <defs>
        <filter id="filter0_d_4402_8404" x="14.3594" y="19.6113" width="140.594" height="109.196"
            filterUnits="userSpaceOnUse" colorInterpolationFilters="sRGB">
            <feFlood floodOpacity="0" result="BackgroundImageFix" />
            <feColorMatrix in="SourceAlpha" type="matrix"
                values="0 0 0 0 0 0 0 0 0 0 0 0 0 0 0 0 0 0 127 0" result="hardAlpha" />
            <feOffset dy="4" />
            <feGaussianBlur stdDeviation="2" />
            <feComposite in2="hardAlpha" operator="out" />
            <feColorMatrix type="matrix" values="0 0 0 0 0 0 0 0 0 0 0 0 0 0 0 0 0 0 0.25 0" />
            <feBlend mode="normal" in2="BackgroundImageFix" result="effect1_dropShadow_4402_8404" />
            <feBlend mode="normal" in="SourceGraphic" in2="effect1_dropShadow_4402_8404"
                result="shape" />
        </filter>
    </defs>
</svg>