<svg xmlns="http://www.w3.org/2000/svg" width="24" height="24" viewBox="0 0 24 24" fill="none" className="svg-icon">
    <path
        d="M22.2852 20.2993L18.0665 10.0806C17.9886 9.89186 17.8564 9.73052 17.6867 9.617C17.517 9.50347 17.3174 9.44287 17.1133 9.44287C16.9091 9.44287 16.7095 9.50347 16.5398 9.617C16.3702 9.73052 16.238 9.89186 16.1601 10.0806L11.9413 20.2993C11.8889 20.4246 11.8617 20.5591 11.8613 20.6949C11.861 20.8308 11.8875 20.9654 11.9393 21.0909C11.9911 21.2165 12.0673 21.3306 12.1633 21.4267C12.2594 21.5228 12.3735 21.5989 12.4991 21.6507C12.6246 21.7026 12.7592 21.7291 12.8951 21.7288C13.0309 21.7285 13.1654 21.7013 13.2907 21.6488C13.416 21.5964 13.5297 21.5197 13.6253 21.4232C13.7209 21.3266 13.7965 21.2122 13.8477 21.0864L14.7069 19.0056H19.5196L20.3788 21.0864C20.4567 21.2752 20.5889 21.4366 20.7586 21.5501C20.9284 21.6637 21.128 21.7243 21.3323 21.7243C21.5017 21.7242 21.6685 21.6824 21.818 21.6024C21.9674 21.5225 22.0948 21.407 22.189 21.2661C22.2832 21.1253 22.3412 20.9633 22.3579 20.7947C22.3746 20.6261 22.3495 20.4559 22.2848 20.2993H22.2852ZM15.5587 16.9431L17.1135 13.1767L18.6683 16.9431H15.5587Z"
        fill="current" />
    <path
        d="M9.82611 7.64352C9.82611 8.70106 9.33146 9.72449 8.46154 10.3727C6.14177 12.0954 2.1845 10.6285 2.1845 7.64352C2.1845 6.73949 2.47447 6.00603 2.95207 5.44314H2.64505C2.08216 5.44314 1.63867 5.03377 1.63867 4.53911C1.63867 4.0274 2.08216 3.61802 2.64505 3.61802H4.89659V3.07219C4.89659 2.62871 5.34008 2.27051 5.88591 2.27051C6.43174 2.27051 6.87522 2.62871 6.87522 3.07219V3.61802H9.24617C9.80906 3.61802 10.2525 4.0274 10.2525 4.53911C10.2525 5.03377 9.80906 5.44314 9.24617 5.44314H9.04148C9.51909 6.00603 9.82611 6.73949 9.82611 7.64352ZM5.71038 16.6156C4.78929 16.6156 4.15817 16.138 4.15817 15.6263V13.17C4.14112 12.9142 4.14112 12.6583 4.15817 12.4025C4.20934 11.9249 4.56754 11.6008 5.07926 11.6008C5.19866 11.6008 5.57392 11.6178 5.69332 11.652C6.29032 11.8396 6.32443 12.4195 6.35855 12.9312C6.37561 13.1189 6.32443 14.4323 6.35855 14.5858H11.1427C11.368 14.5858 11.5909 14.6315 11.7981 14.72L11.8326 14.7348C12.1799 14.8833 12.4052 15.2246 12.4052 15.6023C12.4052 15.9827 12.1767 16.3259 11.8258 16.4727L11.7922 16.4868C11.5888 16.5718 11.3706 16.6156 11.1503 16.6156H5.71038ZM13.9286 8.42815H13.5193V10.6626C13.5022 10.9014 13.4681 11.1744 13.3146 11.4302C13.2464 11.5667 13.144 11.6861 13.0076 11.7543C12.837 11.8737 12.6323 11.9419 12.4106 11.9419C12.24 11.9419 12.0524 11.8908 11.9159 11.8055C11.4212 11.5326 11.353 10.9185 11.353 10.9014V4.40265C11.353 4.30031 11.3701 3.7886 11.5065 3.51568C11.6259 3.29394 11.8988 3.14042 12.257 3.10631C12.6494 3.05514 13.0246 3.15748 13.2293 3.36217C13.3658 3.53274 13.4169 3.70331 13.4681 3.89094C13.5363 4.11268 13.5363 4.3856 13.5193 4.6244V6.51774C13.724 6.5348 14.7133 6.56892 14.9009 6.62009C15.3785 6.70537 15.5491 6.87595 15.6173 7.1318C15.6685 7.3706 15.6855 7.76292 15.5491 7.98466C15.2591 8.42815 14.645 8.42815 13.9286 8.42815ZM6.34645 9.16161C7.06285 9.02515 7.69397 8.51343 7.69397 7.64352C7.69397 5.61371 4.31665 5.51137 4.31665 7.64352C4.31665 8.87163 5.40831 9.34924 6.34645 9.16161Z"
        fill="current" />
</svg>