<svg xmlns="http://www.w3.org/2000/svg" width="28" height="28" viewBox="0 0 28 28" fill="none" className="svg-icon">
    <path
        d="M23.0379 5.83357C24.6915 8.13218 25.6654 10.9525 25.6654 14.0002C25.6654 17.048 24.6915 19.8683 23.0379 22.1669M18.3682 9.33357C19.2909 10.6564 19.832 12.2651 19.832 14.0002C19.832 15.7354 19.2909 17.3441 18.3682 18.6669M11.2387 5.09354L7.54543 8.78684C7.34366 8.98862 7.24277 9.08951 7.12503 9.16165C7.02065 9.22562 6.90684 9.27276 6.7878 9.30134C6.65353 9.33357 6.51085 9.33357 6.2255 9.33357H4.1987C3.5453 9.33357 3.21861 9.33357 2.96904 9.46073C2.74952 9.57259 2.57104 9.75106 2.45919 9.97059C2.33203 10.2201 2.33203 10.5468 2.33203 11.2002V16.8002C2.33203 17.4536 2.33203 17.7803 2.45919 18.0299C2.57104 18.2494 2.74952 18.4279 2.96904 18.5397C3.21861 18.6669 3.5453 18.6669 4.1987 18.6669H6.2255C6.51085 18.6669 6.65353 18.6669 6.7878 18.6991C6.90684 18.7277 7.02065 18.7749 7.12503 18.8388C7.24277 18.911 7.34365 19.0119 7.54543 19.2136L11.2387 22.9069C11.7385 23.4067 11.9884 23.6566 12.2029 23.6735C12.3891 23.6881 12.571 23.6128 12.6923 23.4708C12.832 23.3072 12.832 22.9538 12.832 22.247V5.75351C12.832 5.04672 12.832 4.69333 12.6923 4.52969C12.571 4.3877 12.3891 4.31235 12.2029 4.327C11.9884 4.34388 11.7385 4.59377 11.2387 5.09354Z"
        stroke="current" strokeWidth="1.5" strokeLinecap="round" strokeLinejoin="round" />
</svg>